<?xml version="1.0" encoding="UTF-8" standalone="no"?>
<svg
   viewBox="0 0 100 100"
   x="0px"
   y="0px"
   version="1.1"
   id="svg16"
   sodipodi:docname="predictor.svg"
   width="100"
   height="100"
   inkscape:version="1.1 (c4e8f9ed74, 2021-05-24)"
   xmlns:inkscape="http://www.inkscape.org/namespaces/inkscape"
   xmlns:sodipodi="http://sodipodi.sourceforge.net/DTD/sodipodi-0.dtd"
   xmlns="http://www.w3.org/2000/svg"
   xmlns:svg="http://www.w3.org/2000/svg">
  <defs
     id="defs20" />
  <sodipodi:namedview
     id="namedview18"
     pagecolor="#ffffff"
     bordercolor="#666666"
     borderopacity="1.0"
     inkscape:pageshadow="2"
     inkscape:pageopacity="0.0"
     inkscape:pagecheckerboard="0"
     showgrid="false"
     fit-margin-top="0"
     fit-margin-left="0"
     fit-margin-right="0"
     fit-margin-bottom="0"
     inkscape:zoom="1.03125"
     inkscape:cx="255.51515"
     inkscape:cy="319.51515"
     inkscape:window-width="1920"
     inkscape:window-height="1015"
     inkscape:window-x="0"
     inkscape:window-y="0"
     inkscape:window-maximized="1"
     inkscape:current-layer="svg16" />
  <g
     id="g10"
     transform="matrix(0.22408964,0,0,0.22408974,-7.3669469,-7.3669502)">
    <path
       d="m 361,216.6207 a 13.1256,13.1256 0 0 0 13.125,-13.125 117.3065,117.3065 0 0 0 -34.6326,-83.4881 13.123725,13.123725 0 0 0 -18.5595,18.56 91.2615,91.2615 0 0 1 26.9421,64.9286 13.1256,13.1256 0 0 0 13.125,13.1245 z"
       id="path2" />
    <path
       d="M 408.2791,433.4652 A 56.485,56.485 0 0 1 391.625,393.2614 v -2.0786 A 39.27,39.27 0 0 0 387.25,312.875 h -0.3931 A 168.7287,168.7287 0 0 0 426.625,203.5 C 426.625,109.4161 350.08,32.875 256,32.875 161.92,32.875 85.375,109.4161 85.375,203.5 a 168.7287,168.7287 0 0 0 39.7681,109.375 H 124.75 a 39.27,39.27 0 0 0 -4.375,78.3078 v 2.0786 a 56.485,56.485 0 0 1 -16.6541,40.2038 L 80.47,456.72 a 13.1239,13.1239 0 0 0 9.28,22.4048 h 332.5 A 13.1239,13.1239 0 0 0 431.53,456.72 Z M 156.8789,308.47 A 143.0689,143.0689 0 0 1 111.625,203.5 c 0,-79.6088 64.7705,-144.375 144.375,-144.375 79.6045,0 144.375,64.7662 144.375,144.375 a 143.0689,143.0689 0 0 1 -45.2539,104.97 12.9953,12.9953 0 0 0 -3.0335,4.4049 h -192.171 a 13.0677,13.0677 0 0 0 -3.0377,-4.4049 z m -45.2539,43.78 a 13.1394,13.1394 0 0 1 13.125,-13.125 h 262.5 a 13.125,13.125 0 0 1 0,26.25 H 124.75 A 13.1394,13.1394 0 0 1 111.625,352.25 Z m 9.81,100.625 0.8459,-0.85 a 82.5662,82.5662 0 0 0 24.3445,-58.7634 v -1.6366 h 218.75 v 1.6364 a 82.5662,82.5662 0 0 0 24.3446,58.7634 l 0.8459,0.85 z"
       id="path4" />
    <path
       d="m 81,312.875 a 13.125,13.125 0 0 0 0,-26.25 H 76.625 V 273.5 a 13.125,13.125 0 0 0 -26.25,0 v 13.125 H 46 a 13.125,13.125 0 0 0 0,26.25 h 4.375 V 326 a 13.125,13.125 0 0 0 26.25,0 v -13.125 z"
       id="path6" />
    <path
       d="m 466,67.875 h -8.75 V 46 A 13.125,13.125 0 0 0 431,46 v 21.875 h -8.75 a 13.125,13.125 0 0 0 0,26.25 H 431 V 116 a 13.125,13.125 0 0 0 26.25,0 V 94.125 H 466 a 13.125,13.125 0 0 0 0,-26.25 z"
       id="path8" />
  </g>
</svg>
