<?xml version="1.0" encoding="UTF-8" standalone="no"?>
<svg
   width="700pt"
   height="700pt"
   version="1.1"
   viewBox="0 0 700 700"
   id="svg12"
   sodipodi:docname="reject.svg"
   inkscape:version="1.1.2 (0a00cf5339, 2022-02-04)"
   xmlns:inkscape="http://www.inkscape.org/namespaces/inkscape"
   xmlns:sodipodi="http://sodipodi.sourceforge.net/DTD/sodipodi-0.dtd"
   xmlns="http://www.w3.org/2000/svg"
   xmlns:svg="http://www.w3.org/2000/svg">
  <defs
     id="defs16" />
  <sodipodi:namedview
     id="namedview14"
     pagecolor="#ffffff"
     bordercolor="#666666"
     borderopacity="1.0"
     inkscape:pageshadow="2"
     inkscape:pageopacity="0.0"
     inkscape:pagecheckerboard="0"
     inkscape:document-units="pt"
     showgrid="false"
     inkscape:zoom="0.93535714"
     inkscape:cx="466.66667"
     inkscape:cy="466.66667"
     inkscape:window-width="3774"
     inkscape:window-height="2096"
     inkscape:window-x="66"
     inkscape:window-y="27"
     inkscape:window-maximized="1"
     inkscape:current-layer="svg12" />
  <g
     id="g10"
     transform="matrix(1.2499911,0,0,1.2499996,-87.499351,0)">
    <path
       d="m 580.27,7.2461 -68.355,68.355 -68.355,-68.355 -49.754,49.734 68.355,68.355 -68.355,68.371 49.754,49.734 68.355,-68.355 68.355,68.355 49.734,-49.734 -68.355,-68.371 68.355,-68.355 z"
       id="path2" />
    <path
       d="m 196.98,560 c 70,0 126.96,-56.961 126.96,-126.98 0,-70 -56.961,-126.96 -126.96,-126.96 C 126.96,306.06 70,363.021 70,433.02 70,503.04 126.961,560 196.98,560 Z m 0,-218.94 c 50.699,0 91.961,41.246 91.961,91.961 0,50.715 -41.246,91.98 -91.961,91.98 -50.734,0 -91.98,-41.246 -91.98,-91.98 0,-50.695 41.246,-91.961 91.98,-91.961 z"
       id="path4" />
    <path
       d="m 503.02,306.06 c -70,0 -126.96,56.961 -126.96,126.96 0,70.016 56.961,126.98 126.96,126.98 70.02,0 126.98,-56.961 126.98,-126.98 0,-70 -56.961,-126.96 -126.98,-126.96 z m 0,218.94 c -50.699,0 -91.961,-41.246 -91.961,-91.98 0,-50.699 41.246,-91.961 91.961,-91.961 50.715,0 91.98,41.246 91.98,91.961 0,50.734 -41.246,91.98 -91.98,91.98 z"
       id="path6" />
    <path
       d="m 196.98,253.94 c 70,0 126.96,-56.961 126.96,-126.96 C 323.94,56.96 266.979,0 196.98,0 126.96,0 70,56.961 70,126.98 c 0,70 56.961,126.96 126.98,126.96 z m 0,-218.94 c 50.699,0 91.961,41.246 91.961,91.98 0,50.699 -41.246,91.961 -91.961,91.961 C 146.246,218.941 105,177.675 105,126.98 105,76.246 146.246,35 196.98,35 Z"
       id="path8" />
  </g>
</svg>
