<?xml version="1.0" encoding="UTF-8" standalone="no"?>
<svg
   width="700pt"
   height="700pt"
   version="1.1"
   viewBox="0 0 700 700"
   id="svg853"
   sodipodi:docname="noun-contour-line-1479199.svg"
   inkscape:export-filename="../projects/openhkl/main/images/icons/lighttheme/contour.svg"
   inkscape:export-xdpi="96"
   inkscape:export-ydpi="96"
   xmlns:inkscape="http://www.inkscape.org/namespaces/inkscape"
   xmlns:sodipodi="http://sodipodi.sourceforge.net/DTD/sodipodi-0.dtd"
   xmlns="http://www.w3.org/2000/svg"
   xmlns:svg="http://www.w3.org/2000/svg">
  <sodipodi:namedview
     id="namedview855"
     pagecolor="#ffffff"
     bordercolor="#666666"
     borderopacity="1.0"
     inkscape:showpageshadow="2"
     inkscape:pageopacity="0.0"
     inkscape:pagecheckerboard="0"
     inkscape:deskcolor="#d1d1d1"
     inkscape:document-units="pt"
     showgrid="false" />
  <defs
     id="defs801" />
  <g
     id="g851">
    <path
       d="M 688.33333,0 H 11.666667 C 5.224,0 0,5.224 0,11.666667 V 688.33333 c 0,3.09374 1.2291733,6.06254 3.4166667,8.25 C 5.60416,698.7708 8.5729333,700 11.666667,700 H 688.33333 c 3.09374,0 6.06254,-1.22917 8.25,-3.41667 2.18747,-2.18749 3.41667,-5.15626 3.41667,-8.25 V 11.666667 C 700,8.5729333 698.77083,5.6041333 696.58333,3.4166667 694.39584,1.2292 691.42707,0 688.33333,0 Z m -455,23.333333 h 23.33334 c 0.8177,323.279997 36.636,589.399997 420,594.999997 v 23.33334 C 508.08,635.36453 396.66667,597.80267 329,523.71867 247.33333,434.69733 219.33333,289.452 233.33333,23.332 Z M 676.66667,303.33333 C 537.36,296.91667 436.68,181.88533 431.66667,23.333333 h 70 c 4.7812,99.515997 70,202.413337 175,209.999997 z m 0,23.33334 V 385 C 497.81333,377.18227 389.78667,199.26667 385,23.333333 h 23.33333 C 413.34893,195.41333 523.948,320.25333 676.66667,326.66667 Z m 0,81.66666 V 455 C 468.30667,446.83333 354.32,230.88 350,23.333333 h 11.66667 c 4.90106,187.479997 121.568,377.306667 315,384.999997 z m 0,70 V 525 C 449.98667,519.16667 328.53333,350.58667 315,23.333333 h 11.66667 c 4.43226,218.986667 126.584,446.826667 350,454.999997 z m 0,70 V 595 C 314.06667,589.5156 280.81333,344.64 280,23.333333 h 11.66667 c 13.88533,342.759997 143.14666,519.279997 385,524.999997 z m 0,-338.33333 C 586.71867,201.94787 530.13333,111.416 525,23.333333 H 676.66667 Z M 23.333333,508.78667 c 28.932,-30.448 78.515997,-220.61334 70,-485.453337 H 116.66667 C 115.61459,370.30667 70.932,564.2 23.333333,591.49333 Z M 70,23.333333 C 76.7656,240.45333 44.682667,390.25333 23.333333,455.81333 V 23.333333 Z M 23.333333,676.66667 V 616.46933 C 95.781333,595.584 139.068,377.536 140,23.336 h 23.33333 C 162.40104,504.58933 108.73467,676.66933 58.333333,676.66933 Z m 140.813337,0 c 4.0156,-30.15067 22.47333,-56.45867 49.45866,-70.48934 26.98934,-14.03066 59.12534,-14.03066 86.11467,0 26.984,14.03067 45.44267,40.33867 49.45867,70.48934 z m 209.18666,0 C 369.44787,637.948 346.51067,603.71333 312.18267,585.396 c -34.328,-18.32267 -75.536,-18.32267 -109.864,0 -34.328,18.31733 -57.26534,52.552 -61.15067,91.27067 H 100.1 C 169.40267,591.61467 186.668,288.28 186.668,23.333333 h 23.33333 C 198.33467,253.98667 211.98573,430.14667 312.31867,539 385.00133,618.33333 500.972,658.11467 676.66533,665 v 11.66667 z"
       id="path803"
       style="fill:#ffffff;stroke-width:1.33333" />
    <path
       d="m 618.33333,128.33333 c 12.37494,0 24.24534,-4.91666 33,-13.66666 C 660.08333,105.91147 665,94.041333 665,81.666667 665,69.292 660.08333,57.421333 651.33333,48.666667 642.57813,39.916667 630.708,35 618.33333,35 c -12.37466,0 -24.24533,4.916667 -33,13.666667 -8.75,8.7552 -13.66666,20.625333 -13.66666,33 0,12.374666 4.91666,24.245333 13.66666,33.000003 8.7552,8.75 20.62534,13.66666 33,13.66666 z m 0,-69.999997 c 6.18747,0 12.12507,2.4584 16.5,6.833334 4.37494,4.374933 6.83334,10.312533 6.83334,16.5 0,6.187466 -2.4584,12.125066 -6.83334,16.5 C 630.4584,102.5416 624.5208,105 618.33333,105 c -6.18746,0 -12.12506,-2.4584 -16.5,-6.833333 C 597.4584,93.791733 595,87.854133 595,81.666667 c 0,-6.187467 2.4584,-12.125067 6.83333,-16.5 4.37494,-4.374934 10.31254,-6.833334 16.5,-6.833334 z"
       id="path805"
       style="fill:#ffffff;stroke-width:1.33333" />
  </g>
</svg>
