<?xml version="1.0" encoding="UTF-8" standalone="no"?>
<svg
   width="700pt"
   height="700pt"
   version="1.1"
   viewBox="0 0 700 700"
   id="svg16"
   sodipodi:docname="delete.svg"
   inkscape:version="1.1.2 (0a00cf5339, 2022-02-04)"
   xmlns:inkscape="http://www.inkscape.org/namespaces/inkscape"
   xmlns:sodipodi="http://sodipodi.sourceforge.net/DTD/sodipodi-0.dtd"
   xmlns="http://www.w3.org/2000/svg"
   xmlns:svg="http://www.w3.org/2000/svg">
  <defs
     id="defs20" />
  <sodipodi:namedview
     id="namedview18"
     pagecolor="#ffffff"
     bordercolor="#666666"
     borderopacity="1.0"
     inkscape:pageshadow="2"
     inkscape:pageopacity="0.0"
     inkscape:pagecheckerboard="0"
     inkscape:document-units="pt"
     showgrid="false"
     inkscape:zoom="0.93535714"
     inkscape:cx="466.66667"
     inkscape:cy="466.66667"
     inkscape:window-width="3774"
     inkscape:window-height="2096"
     inkscape:window-x="66"
     inkscape:window-y="27"
     inkscape:window-maximized="1"
     inkscape:current-layer="svg16" />
  <g
     id="g14"
     transform="matrix(1.2500192,0,0,1.2500192,-87.498843,-0.02837545)"
     style="fill:#ffffff">
    <path
       d="M 385,560 H 128.33 C 96.154,560 69.998,533.82 69.998,501.668 v -326.67 c 0,-6.4414 5.2266,-11.668 11.668,-11.668 h 350 c 6.4375,0 11.664,5.2266 11.664,11.668 v 326.67 C 443.33,533.82 417.174,560 384.998,560 Z M 93.33,186.67 v 315 c 0,19.297 15.703,35 35,35 H 385 c 19.297,0 35,-15.703 35,-35 v -315 z"
       id="path2"
       style="fill:#ffffff" />
    <path
       d="m 585.34,336.82 c -3.1016,0 -6.0664,-1.2383 -8.2617,-3.4062 l -280.46,-280.49 c -4.5508,-4.5508 -4.5508,-11.945 0,-16.496 l 32.992,-32.992 c 4.5508,-4.5508 11.945,-4.5508 16.496,0 l 9.0781,9.0781 c 22.633,-14.961 53.504,-12.512 73.406,7.4141 l 181.49,181.49 c 11.035,11.012 17.078,25.668 17.078,41.254 0,11.621 -3.3828,22.727 -9.6602,32.176 l 9.0781,9.0781 c 4.5508,4.5508 4.5508,11.945 0,16.496 l -32.992,32.992 c -2.1719,2.168 -5.1367,3.4062 -8.2383,3.4062 z M 321.35,44.66 l 263.97,263.99 16.496,-16.496 -8.2617,-8.2617 c -4.5508,-4.5508 -4.5508,-11.945 0,-16.496 6.6016,-6.6016 10.242,-15.398 10.242,-24.758 0,-9.3555 -3.6406,-18.129 -10.242,-24.758 l -181.49,-181.49 c -13.625,-13.625 -35.863,-13.625 -49.488,0 -4.5508,4.5508 -11.945,4.5508 -16.496,0 l -8.2617,-8.2617 z"
       id="path4"
       style="fill:#ffffff" />
    <path
       d="m 151.67,490 c -6.4414,0 -11.668,-5.2266 -11.668,-11.668 v -233.33 c 0,-6.4414 5.2266,-11.668 11.668,-11.668 6.4375,0 11.664,5.2266 11.664,11.668 v 233.33 c 0,6.4414 -5.2266,11.668 -11.664,11.668 z"
       id="path6"
       style="fill:#ffffff" />
    <path
       d="m 256.67,490 c -6.4414,0 -11.668,-5.2266 -11.668,-11.668 v -233.33 c 0,-6.4414 5.2266,-11.668 11.668,-11.668 6.4414,0 11.668,5.2266 11.668,11.668 v 233.33 C 268.33409,484.7734 263.1075,490 256.67,490 Z"
       id="path8"
       style="fill:#ffffff" />
    <path
       d="m 361.67,490 c -6.4414,0 -11.668,-5.2266 -11.668,-11.668 v -233.33 c 0,-6.4414 5.2266,-11.668 11.668,-11.668 6.4414,0 11.668,5.2266 11.668,11.668 v 233.33 C 373.33409,484.7734 368.1075,490 361.67,490 Z"
       id="path10"
       style="fill:#ffffff" />
    <path
       d="m 361.67,186.67 c -6.4414,0 -11.668,-5.2266 -11.668,-11.668 0,-19.297 -15.703,-35 -35,-35 h -46.668 c -6.4375,0 -11.664,-5.2266 -11.664,-11.668 0,-19.297 -15.703,-35 -35,-35 -19.297,0 -35,15.703 -35,35 0,6.4414 -5.2266,11.668 -11.668,11.668 H 151.67 c -19.297,0 -35,15.703 -35,35 0,6.4414 -5.2266,11.668 -11.668,11.668 -6.4414,0 -11.668,-5.2266 -11.668,-11.668 0,-32.152 26.156,-58.332 58.336,-58.332 h 12.832 c 5.4141,-26.602 29.004,-46.668 57.168,-46.668 28.164,0 51.754,20.066 57.168,46.668 h 36.168 c 32.172,0 58.328,26.18 58.328,58.332 0,6.4414 -5.2266,11.668 -11.664,11.668 z"
       id="path12"
       style="fill:#ffffff" />
  </g>
</svg>
