<?xml version="1.0" encoding="UTF-8" standalone="no"?>
<svg
   width="700pt"
   height="700pt"
   version="1.1"
   viewBox="0 0 700 700"
   id="svg14"
   sodipodi:docname="hide.svg"
   inkscape:version="1.1.2 (0a00cf5339, 2022-02-04)"
   xmlns:inkscape="http://www.inkscape.org/namespaces/inkscape"
   xmlns:sodipodi="http://sodipodi.sourceforge.net/DTD/sodipodi-0.dtd"
   xmlns="http://www.w3.org/2000/svg"
   xmlns:svg="http://www.w3.org/2000/svg">
  <defs
     id="defs18" />
  <sodipodi:namedview
     id="namedview16"
     pagecolor="#ffffff"
     bordercolor="#666666"
     borderopacity="1.0"
     inkscape:pageshadow="2"
     inkscape:pageopacity="0.0"
     inkscape:pagecheckerboard="0"
     inkscape:document-units="pt"
     showgrid="false"
     inkscape:zoom="0.93535714"
     inkscape:cx="466.66667"
     inkscape:cy="466.66667"
     inkscape:window-width="3774"
     inkscape:window-height="2096"
     inkscape:window-x="66"
     inkscape:window-y="27"
     inkscape:window-maximized="1"
     inkscape:current-layer="svg14" />
  <g
     id="g12"
     transform="matrix(1.2500074,0,0,1.2500074,-87.496153,-0.51882)"
     style="fill:#ffffff">
    <path
       d="m 350,373.33 c -24.941,0 -48.395,-9.707 -65.988,-27.348 -4.5508,-4.5508 -4.5508,-11.969 0,-16.496 4.5508,-4.5508 11.945,-4.5508 16.496,0 13.207,13.23 30.777,20.512 49.492,20.512 38.594,0 70,-31.406 70,-70 0,-18.715 -7.3047,-36.285 -20.512,-49.488 -4.5508,-4.5273 -4.5508,-11.945 0,-16.496 4.5508,-4.551 11.945,-4.5508 16.496,0 17.641,17.59 27.348,41.043 27.348,65.984 0,51.473 -41.859,93.332 -93.332,93.332 z"
       id="path2"
       style="fill:#ffffff" />
    <path
       d="m 269.76,305.9 c -5.5312,0 -10.453,-3.9883 -11.457,-9.6367 -0.95703,-5.2969 -1.6328,-10.707 -1.6328,-16.262 0,-51.473 41.859,-93.332 93.332,-93.332 5.5547,0 10.965,0.67578 16.262,1.6094 6.3242,1.1211 10.57,7.1875 9.4492,13.512 -1.1211,6.3242 -7.3047,10.711 -13.512,9.4492 -3.9609,-0.70312 -8,-1.2383 -12.199,-1.2383 -38.594,0 -70,31.406 -70,70 0,4.1992 0.53516,8.2383 1.2617,12.203 1.1211,6.3242 -3.125,12.391 -9.4492,13.512 -0.70312,0.13672 -1.3789,0.18359 -2.0547,0.18359 z"
       id="path4"
       style="fill:#ffffff" />
    <path
       d="m 350,443.33 c -42.676,0 -85.562,-10.219 -127.45,-30.449 -5.8086,-2.8008 -8.2617,-9.7773 -5.4375,-15.562 2.8008,-5.8086 9.8242,-8.2617 15.562,-5.4375 38.711,18.668 78.168,28.117 117.32,28.117 115.38,0 224.84,-109.88 252.65,-140 -18.316,-19.785 -71.891,-73.965 -138.95,-108.69 -5.7383,-2.9648 -7.9805,-10.012 -5.0156,-15.727 2.9648,-5.7383 10.078,-7.9805 15.727,-5.0156 87.059,45.102 150.17,118.77 152.81,121.89 3.6875,4.3633 3.7109,10.734 0.0234,15.074 -5.3906,6.3672 -133.49,155.79 -277.25,155.79 z"
       id="path6"
       style="fill:#ffffff" />
    <path
       d="m 185.57,390.11 c -2.2383,0 -4.457,-0.62891 -6.4414,-1.9609 -66.852,-44.402 -105.42,-99.168 -107.03,-101.48 -3.0352,-4.3633 -2.7539,-10.195 0.65234,-14.211 5.3945,-6.3672 133.49,-155.79 277.25,-155.79 24.242,0 50.004,4.5039 76.559,13.441 6.1133,2.0547 9.3789,8.6562 7.3281,14.77 -2.0312,6.1367 -8.6562,9.5195 -14.77,7.3281 -24.129,-8.1016 -47.395,-12.207 -69.117,-12.207 -116.22,0 -226.4,111.46 -253.26,140.63 12.578,16.031 46.176,55.441 95.27,88.082 5.3672,3.5469 6.8359,10.805 3.2656,16.148 -2.2383,3.4297 -5.9453,5.25 -9.7031,5.25 z"
       id="path8"
       style="fill:#ffffff" />
    <path
       d="m 151.67,490 c -2.9883,0 -5.9727,-1.1445 -8.2617,-3.4062 -4.5508,-4.5508 -4.5508,-11.945 0,-16.496 l 396.67,-396.67 c 4.5508,-4.5508 11.945,-4.5508 16.496,0 4.5508,4.5508 4.5508,11.945 0,16.496 l -396.67,396.67 c -2.2617,2.2617 -5.25,3.4062 -8.2344,3.4062 z"
       id="path10"
       style="fill:#ffffff" />
  </g>
</svg>
