<?xml version="1.0" encoding="UTF-8" standalone="no"?>
<svg
   width="700pt"
   height="700pt"
   version="1.1"
   viewBox="0 0 700 700"
   id="svg18"
   sodipodi:docname="save.svg"
   inkscape:version="1.1.2 (0a00cf5339, 2022-02-04)"
   xmlns:inkscape="http://www.inkscape.org/namespaces/inkscape"
   xmlns:sodipodi="http://sodipodi.sourceforge.net/DTD/sodipodi-0.dtd"
   xmlns="http://www.w3.org/2000/svg"
   xmlns:svg="http://www.w3.org/2000/svg">
  <defs
     id="defs22" />
  <sodipodi:namedview
     id="namedview20"
     pagecolor="#ffffff"
     bordercolor="#666666"
     borderopacity="1.0"
     inkscape:pageshadow="2"
     inkscape:pageopacity="0.0"
     inkscape:pagecheckerboard="0"
     inkscape:document-units="pt"
     showgrid="false"
     inkscape:zoom="0.93535714"
     inkscape:cx="466.13211"
     inkscape:cy="466.13211"
     inkscape:window-width="1907"
     inkscape:window-height="1383"
     inkscape:window-x="1530"
     inkscape:window-y="261"
     inkscape:window-maximized="0"
     inkscape:current-layer="svg18" />
  <g
     id="g16"
     transform="matrix(1.2500002,0,0,1.2500002,-87.500016,0)"
     style="fill:#ffffff">
    <path
       d="M 595,560 H 105 C 85.703,560 70,544.297 70,525 V 35 C 70,15.703 85.703,0 105,0 h 420 c 3.1016,0 6.0664,1.2383 8.2617,3.4062 l 93.332,93.332 c 2.168,2.1953 3.4062,5.1602 3.4062,8.2617 v 420 c 0,19.297 -15.703,35 -35,35 z M 105,23.33 c -6.418,0 -11.668,5.2266 -11.668,11.668 v 490 c 0,6.4414 5.25,11.668 11.668,11.668 h 490 c 6.418,0 11.668,-5.2266 11.668,-11.668 V 109.828 L 520.172,23.332 Z"
       id="path2"
       style="fill:#ffffff" />
    <path
       d="M 455,186.67 H 245 c -19.297,0 -35,-15.703 -35,-35 v -140 c 0,-6.4414 5.2266,-11.668 11.668,-11.668 h 256.67 c 6.4375,0 11.664,5.2266 11.664,11.668 v 140 c 0,19.297 -15.703,35 -35,35 z M 233.33,23.33 v 128.33 c 0,6.4414 5.25,11.668 11.668,11.668 h 210 c 6.418,0 11.668,-5.2266 11.668,-11.664 V 23.324 Z"
       id="path4"
       style="fill:#ffffff" />
    <path
       d="M 548.33,560 H 151.66 c -6.4375,0 -11.664,-5.2266 -11.664,-11.668 v -280 C 139.996,236.18 166.152,210 198.328,210 h 303.33 c 32.176,0 58.332,26.18 58.332,58.332 v 280 C 559.994,554.7734 554.7673,560 548.326,560 Z m -385,-23.332 h 373.33 l 0.004,-268.34 c 0,-19.297 -15.703,-35 -35,-35 h -303.33 c -19.301,0 -35.004,15.703 -35.004,35 z"
       id="path6"
       style="fill:#ffffff" />
    <path
       d="m 431.67,140 h -46.668 c -6.4414,0 -11.668,-5.2266 -11.668,-11.668 v -70 c 0,-6.4375 5.2266,-11.664 11.668,-11.664 h 46.668 c 6.4375,0 11.664,5.2266 11.664,11.664 v 70 c 0,6.4414 -5.2266,11.668 -11.664,11.668 z m -35,-23.332 h 23.332 V 70 H 396.67 Z"
       id="path8"
       style="fill:#ffffff" />
    <path
       d="M 478.33,326.67 H 221.66 c -6.4375,0 -11.664,-5.2266 -11.664,-11.668 0,-6.4414 5.2266,-11.668 11.668,-11.668 h 256.67 c 6.4414,0 11.668,5.2266 11.668,11.668 -0.004,6.4414 -5.2305,11.668 -11.672,11.668 z"
       id="path10"
       style="fill:#ffffff" />
    <path
       d="M 478.33,396.67 H 221.66 c -6.4375,0 -11.664,-5.2266 -11.664,-11.668 0,-6.4414 5.2266,-11.668 11.668,-11.668 h 256.67 c 6.4414,0 11.668,5.2266 11.668,11.668 -0.004,6.4414 -5.2305,11.668 -11.672,11.668 z"
       id="path12"
       style="fill:#ffffff" />
    <path
       d="M 478.33,466.67 H 221.66 c -6.4375,0 -11.664,-5.2266 -11.664,-11.668 0,-6.4414 5.2266,-11.668 11.668,-11.668 h 256.67 c 6.4414,0 11.668,5.2266 11.668,11.668 -0.004,6.4414 -5.2305,11.668 -11.672,11.668 z"
       id="path14"
       style="fill:#ffffff" />
  </g>
</svg>
