<?xml version="1.0" encoding="UTF-8" standalone="no"?>
<svg
   width="700pt"
   height="700pt"
   version="1.1"
   viewBox="0 0 700 700"
   id="svg24"
   sodipodi:docname="copy.svg"
   inkscape:version="1.1.2 (0a00cf5339, 2022-02-04)"
   xmlns:inkscape="http://www.inkscape.org/namespaces/inkscape"
   xmlns:sodipodi="http://sodipodi.sourceforge.net/DTD/sodipodi-0.dtd"
   xmlns="http://www.w3.org/2000/svg"
   xmlns:svg="http://www.w3.org/2000/svg">
  <defs
     id="defs28" />
  <sodipodi:namedview
     id="namedview26"
     pagecolor="#ffffff"
     bordercolor="#666666"
     borderopacity="1.0"
     inkscape:pageshadow="2"
     inkscape:pageopacity="0.0"
     inkscape:pagecheckerboard="0"
     inkscape:document-units="pt"
     showgrid="false"
     inkscape:zoom="0.93535714"
     inkscape:cx="466.66667"
     inkscape:cy="466.66667"
     inkscape:window-width="3774"
     inkscape:window-height="2096"
     inkscape:window-x="66"
     inkscape:window-y="27"
     inkscape:window-maximized="1"
     inkscape:current-layer="svg24" />
  <g
     id="g22"
     transform="matrix(1.2500045,0,0,1.2500045,-84.17073,-0.00250001)">
    <path
       d="M 501.67,560 H 198.34 c -19.301,0 -35.004,-15.703 -35.004,-35 V 105 c 0,-19.297 15.703,-35 35,-35 h 46.668 c 6.4414,0 11.668,5.2266 11.668,11.668 0,6.4375 -5.2266,11.664 -11.668,11.664 h -46.668 c -6.4141,0 -11.664,5.25 -11.664,11.668 v 420 c 0,6.418 5.25,11.668 11.664,11.668 h 303.33 c 6.418,0 11.668,-5.25 11.668,-11.668 V 105 c 0,-6.418 -5.25,-11.668 -11.664,-11.668 h -46.668 c -6.4414,0 -11.668,-5.2266 -11.668,-11.664 0,-6.4414 5.2266,-11.668 11.668,-11.668 h 46.668 c 19.297,0 35,15.703 35,35 v 420 c 0,19.297 -15.703,35 -35,35 z"
       id="path2" />
    <path
       d="M 455,116.67 H 245 c -6.4414,0 -11.668,-5.2266 -11.668,-11.668 V 81.67 c 0,-19.297 15.703,-35 35,-35 h 35 c 0,-25.738 20.93,-46.668 46.668,-46.668 25.738,0 46.668,20.93 46.668,46.668 h 35 c 19.297,0 35,15.703 35,35 v 23.332 c 0,6.4414 -5.2266,11.668 -11.668,11.668 z M 256.67,93.334 H 443.34 L 443.336,81.67 c 0,-6.418 -5.25,-11.668 -11.664,-11.668 h -46.668 c -6.4414,0 -11.668,-5.2266 -11.668,-11.668 V 46.67 c 0,-12.879 -10.453,-23.332 -23.332,-23.332 -12.879,0 -23.332,10.453 -23.332,23.332 v 11.668 c 0,6.4375 -5.2266,11.664 -11.668,11.664 h -46.668 c -6.4141,0 -11.664,5.25 -11.664,11.668 z"
       id="path4" />
    <path
       d="m 256.67,291.67 c 0,6.4414 -5.2266,11.664 -11.668,11.664 -6.4414,0 -11.668,-5.2227 -11.668,-11.664 0,-6.4453 5.2266,-11.668 11.668,-11.668 6.4414,0 11.668,5.2227 11.668,11.668"
       id="path6" />
    <path
       d="m 256.67,361.67 c 0,6.4414 -5.2266,11.664 -11.668,11.664 -6.4414,0 -11.668,-5.2227 -11.668,-11.664 0,-6.4453 5.2266,-11.668 11.668,-11.668 6.4414,0 11.668,5.2227 11.668,11.668"
       id="path8" />
    <path
       d="m 256.67,431.67 c 0,6.4414 -5.2266,11.664 -11.668,11.664 -6.4414,0 -11.668,-5.2227 -11.668,-11.664 0,-6.4453 5.2266,-11.668 11.668,-11.668 6.4414,0 11.668,5.2227 11.668,11.668"
       id="path10" />
    <path
       d="M 455,303.33 H 291.67 c -6.4414,0 -11.668,-5.2266 -11.668,-11.664 0,-6.4414 5.2266,-11.668 11.668,-11.668 H 455 c 6.4414,0 11.668,5.2266 11.668,11.668 0,6.4375 -5.2266,11.664 -11.668,11.664 z"
       id="path12" />
    <path
       d="m 256.67,221.67 c 0,6.4414 -5.2266,11.664 -11.668,11.664 -6.4414,0 -11.668,-5.2227 -11.668,-11.664 0,-6.4453 5.2266,-11.668 11.668,-11.668 6.4414,0 11.668,5.2227 11.668,11.668"
       id="path14" />
    <path
       d="M 455,233.33 H 291.67 c -6.4414,0 -11.668,-5.2266 -11.668,-11.664 0,-6.4414 5.2266,-11.668 11.668,-11.668 H 455 c 6.4414,0 11.668,5.2266 11.668,11.668 0,6.4375 -5.2266,11.664 -11.668,11.664 z"
       id="path16" />
    <path
       d="M 455,373.33 H 291.67 c -6.4414,0 -11.668,-5.2266 -11.668,-11.664 0,-6.4414 5.2266,-11.668 11.668,-11.668 H 455 c 6.4414,0 11.668,5.2266 11.668,11.668 0,6.4375 -5.2266,11.664 -11.668,11.664 z"
       id="path18" />
    <path
       d="M 455,443.33 H 291.67 c -6.4414,0 -11.668,-5.2266 -11.668,-11.664 0,-6.4414 5.2266,-11.668 11.668,-11.668 H 455 c 6.4414,0 11.668,5.2266 11.668,11.668 0,6.4375 -5.2266,11.664 -11.668,11.664 z"
       id="path20" />
  </g>
</svg>
