<?xml version="1.0" encoding="UTF-8" standalone="no"?>
<svg
   width="700pt"
   height="700pt"
   version="1.1"
   viewBox="0 0 700 700"
   id="svg121"
   sodipodi:docname="noun-gradient-2129424.svg"
   xmlns:inkscape="http://www.inkscape.org/namespaces/inkscape"
   xmlns:sodipodi="http://sodipodi.sourceforge.net/DTD/sodipodi-0.dtd"
   xmlns="http://www.w3.org/2000/svg"
   xmlns:svg="http://www.w3.org/2000/svg">
  <sodipodi:namedview
     id="namedview123"
     pagecolor="#ffffff"
     bordercolor="#666666"
     borderopacity="1.0"
     inkscape:showpageshadow="2"
     inkscape:pageopacity="0.0"
     inkscape:pagecheckerboard="0"
     inkscape:deskcolor="#d1d1d1"
     inkscape:document-units="pt"
     showgrid="false" />
  <defs
     id="defs59" />
  <g
     id="g119">
    <path
       d="M 0,61.801029 C 0,27.674901 27.689901,0 61.801029,0 H 638.19897 C 672.3251,0 700,27.689901 700,61.801029 V 638.19897 C 700,672.3251 672.3101,700 638.19897,700 H 61.801029 C 27.674901,700 0,672.3101 0,638.19897 Z M 65.033518,350 c 16.64494,11.06446 27.612401,29.98489 27.612401,51.46982 0,21.48492 -10.966711,40.40485 -27.612401,51.46981 16.64494,11.06934 27.612401,29.9899 27.612401,51.47482 0,21.47992 -10.966711,40.40485 -27.612401,51.46981 16.64494,11.06447 27.612401,29.9849 27.612401,51.46982 0,21.48492 -10.966711,40.40486 -27.612401,51.46982 H 638.19397 c 11.37209,0 20.62493,-9.24797 20.62493,-20.62493 V 61.801029 c 0,-11.372084 -9.24797,-20.624926 -20.62493,-20.624926 H 65.033518 c 16.64494,11.06446 27.612401,29.984893 27.612401,51.469816 0,21.484921 -10.966711,40.404851 -27.612401,51.469821 16.64494,11.06446 27.612401,29.98989 27.612401,51.46981 0,21.48492 -10.966711,40.40486 -27.612401,51.47482 16.64494,11.06446 27.612401,29.98489 27.612401,51.46981 0,21.48493 -10.966711,40.40486 -27.612401,51.46982 z M 349.995,370.58618 c -11.37208,0 -20.58618,-9.21385 -20.58618,-20.58618 0,-11.37233 9.21385,-20.58618 20.58618,-20.58618 11.37233,0 20.58618,9.21385 20.58618,20.58618 0,11.37233 -9.21385,20.58618 -20.58618,20.58618 z m -82.35346,-41.17236 c -17.05618,0 -30.88364,-13.82745 -30.88364,-30.88364 0,-17.05619 13.82746,-30.88364 30.88364,-30.88364 17.05619,0 30.88364,13.82745 30.88364,30.88364 0,17.05619 -13.82745,30.88364 -30.88364,30.88364 z m 82.35346,-41.1761 c -11.37208,0 -20.58618,-9.21872 -20.58618,-20.59118 0,-11.37208 9.21385,-20.58617 20.58618,-20.58617 11.37233,0 20.58618,9.21384 20.58618,20.58617 0,11.37209 -9.21385,20.59118 -20.58618,20.59118 z m 0,-82.35346 c -11.37208,0 -20.58618,-9.21871 -20.58618,-20.59117 0,-11.36721 9.21385,-20.58618 20.58618,-20.58618 11.37233,0 20.58618,9.21872 20.58618,20.58618 0,11.37208 -9.21385,20.59117 -20.58618,20.59117 z m 0,411.76103 c -11.37208,0 -20.58618,-9.21871 -20.58618,-20.58617 0,-11.37209 9.21385,-20.59118 20.58618,-20.59118 11.37233,0 20.58618,9.21872 20.58618,20.59118 0,11.36721 -9.21385,20.58617 -20.58618,20.58617 z m 0,-82.35345 c -11.37208,0 -20.58618,-9.21872 -20.58618,-20.58618 0,-11.37208 9.21385,-20.59117 20.58618,-20.59117 11.37233,0 20.58618,9.21871 20.58618,20.59117 0,11.36721 -9.21385,20.58618 -20.58618,20.58618 z m 0,-82.35346 c -11.37208,0 -20.58618,-9.21384 -20.58618,-20.58617 0,-11.37209 9.21385,-20.59118 20.58618,-20.59118 11.37233,0 20.58618,9.21872 20.58618,20.59118 0,11.37208 -9.21385,20.58617 -20.58618,20.58617 z m 0,-329.41132 c -11.37208,0 -20.58618,-9.21872 -20.58618,-20.59118 0,-11.367207 9.21385,-20.586174 20.58618,-20.586174 11.37233,0 20.58618,9.218717 20.58618,20.586174 0,11.37209 -9.21385,20.59118 -20.58618,20.59118 z m -82.35346,102.93963 c -17.05618,0 -30.88364,-13.8237 -30.88364,-30.88364 0,-17.05619 13.82746,-30.87864 30.88364,-30.87864 17.05619,0 30.88364,13.8237 30.88364,30.87864 0,17.05994 -13.82745,30.88364 -30.88364,30.88364 z m 0,-102.93963 c -17.05618,0 -30.88364,-13.82745 -30.88364,-30.883641 0,-17.056189 13.82746,-30.88364 30.88364,-30.88364 17.05619,0 30.88364,13.827451 30.88364,30.88364 0,17.056191 -13.82745,30.883641 -30.88364,30.883641 z m 0,514.71066 c -17.05618,0 -30.88364,-13.82745 -30.88364,-30.88364 0,-17.05619 13.82746,-30.88364 30.88364,-30.88364 17.05619,0 30.88364,13.82745 30.88364,30.88364 0,17.05619 -13.82745,30.88364 -30.88364,30.88364 z m 0,-102.94338 c -17.05618,0 -30.88364,-13.8237 -30.88364,-30.87864 0,-17.05994 13.82746,-30.88364 30.88364,-30.88364 17.05619,0 30.88364,13.8237 30.88364,30.88364 0,17.05619 -13.82745,30.87864 -30.88364,30.87864 z m 0,-102.93963 c -17.05618,0 -30.88364,-13.82745 -30.88364,-30.88364 0,-17.05619 13.82746,-30.88364 30.88364,-30.88364 17.05619,0 30.88364,13.82745 30.88364,30.88364 0,17.05619 -13.82745,30.88364 -30.88364,30.88364 z M 164.70191,339.70879 c -22.74367,0 -41.1761,-18.43744 -41.1761,-41.17611 0,-22.74366 18.43243,-41.1761 41.1761,-41.1761 22.73867,0 41.1761,18.43244 41.1761,41.1761 0,22.73867 -18.43743,41.17611 -41.1761,41.17611 z m 0,-102.94339 c -22.74367,0 -41.1761,-18.43243 -41.1761,-41.1761 0,-22.73867 18.43243,-41.17235 41.1761,-41.17235 22.73867,0 41.1761,18.43243 41.1761,41.17235 0,22.74367 -18.43743,41.1761 -41.1761,41.1761 z m 0,-102.93963 c -22.74367,0 -41.1761,-18.43243 -41.1761,-41.176101 0,-22.738669 18.43243,-41.176103 41.1761,-41.176103 22.73867,0 41.1761,18.437434 41.1761,41.176103 0,22.743671 -18.43743,41.176101 -41.1761,41.176101 z m 0,514.71066 c -22.74367,0 -41.1761,-18.43743 -41.1761,-41.1761 0,-22.74367 18.43243,-41.1761 41.1761,-41.1761 22.73867,0 41.1761,18.43243 41.1761,41.1761 0,22.73867 -18.43743,41.1761 -41.1761,41.1761 z m 0,-102.94338 c -22.74367,0 -41.1761,-18.43243 -41.1761,-41.17235 0,-22.74367 18.43243,-41.1761 41.1761,-41.1761 22.73867,0 41.1761,18.43243 41.1761,41.1761 0,22.73867 -18.43743,41.17235 -41.1761,41.17235 z m 0,-102.93963 c -22.74367,0 -41.1761,-18.43244 -41.1761,-41.1761 0,-22.73867 18.43243,-41.17611 41.1761,-41.17611 22.73867,0 41.1761,18.43744 41.1761,41.17611 0,22.74366 -18.43743,41.1761 -41.1761,41.1761 z"
       id="path61"
       style="stroke-width:1.25" />
  </g>
</svg>
