<?xml version="1.0" encoding="UTF-8" standalone="no"?>
<svg
   width="700pt"
   height="700pt"
   version="1.1"
   viewBox="0 0 700 700"
   id="svg8"
   sodipodi:docname="load.svg"
   inkscape:version="1.1.2 (0a00cf5339, 2022-02-04)"
   xmlns:inkscape="http://www.inkscape.org/namespaces/inkscape"
   xmlns:sodipodi="http://sodipodi.sourceforge.net/DTD/sodipodi-0.dtd"
   xmlns="http://www.w3.org/2000/svg"
   xmlns:svg="http://www.w3.org/2000/svg">
  <defs
     id="defs12" />
  <sodipodi:namedview
     id="namedview10"
     pagecolor="#ffffff"
     bordercolor="#666666"
     borderopacity="1.0"
     inkscape:pageshadow="2"
     inkscape:pageopacity="0.0"
     inkscape:pagecheckerboard="0"
     inkscape:document-units="pt"
     showgrid="false"
     inkscape:zoom="0.93535714"
     inkscape:cx="466.13211"
     inkscape:cy="466.66667"
     inkscape:window-width="1551"
     inkscape:window-height="1082"
     inkscape:window-x="216"
     inkscape:window-y="177"
     inkscape:window-maximized="0"
     inkscape:current-layer="svg8" />
  <g
     id="g6"
     transform="matrix(1.2502996,0,0,1.2502996,-87.585425,-6.51847)">
    <path
       d="M 559.3,490 H 138.62 c -16.941,0 -31.406,-12.109 -34.441,-28.723 l -33.18,-182.49 c -3.1016,-17.059 1.4922,-34.512 12.602,-47.809 11.129,-13.352 27.438,-20.98 44.797,-20.98 h 123.43 c 9.0078,0 18.035,-2.125 26.086,-6.1602 l 63.77,-31.898 c 11.297,-5.6211 23.918,-8.6094 36.52,-8.6094 h 193.39 c 17.035,0 33.18,7.4219 44.262,20.348 11.105,12.949 15.984,30.008 13.371,46.852 l -35.352,229.81 c -2.6367,17.176 -17.172,29.66 -34.578,29.66 z M 128.4,233.33 c -10.406,0 -20.207,4.5742 -26.879,12.578 -6.6719,7.9805 -9.4258,18.434 -7.5586,28.676 l 33.18,182.49 c 1.0273,5.5547 5.8555,9.5938 11.48,9.5938 h 420.68 c 5.8086,0 10.664,-4.1758 11.551,-9.8945 l 35.352,-229.81 c 1.5391,-10.102 -1.375,-20.324 -8.0273,-28.094 -6.6758,-7.7695 -16.359,-12.203 -26.578,-12.203 h -193.39 c -9.0078,0 -18.012,2.125 -26.086,6.1602 l -63.773,31.895 c -11.27,5.625 -23.914,8.6094 -36.516,8.6094 z"
       id="path2" />
    <path
       d="m 128.36,233.33 c -6.4414,0 -11.668,-5.2266 -11.668,-11.668 V 128.33 c 0,-32.176 26.18,-58.332 58.332,-58.332 h 93.332 c 15.562,0 30.215,6.0664 41.254,17.078 l 19.344,19.32 c 6.5156,6.5352 15.543,10.27 24.738,10.27 h 194.67 c 19.297,0 35,15.703 35,35 v 23.332 c 0,6.4414 -5.2266,11.668 -11.668,11.668 -6.4414,0 -11.668,-5.2266 -11.668,-11.668 v -23.332 c 0,-6.418 -5.2266,-11.668 -11.668,-11.668 h -194.67 c -15.562,0 -30.215,-6.0664 -41.254,-17.078 L 293.118,103.576 C 286.6063,97.0643 277.579,93.33 268.36,93.33 h -93.332 c -19.297,0 -35,15.703 -35,35 v 93.332 c 0,6.4414 -5.2031,11.668 -11.668,11.668 z"
       id="path4" />
  </g>
</svg>
