<?xml version="1.0" encoding="UTF-8" standalone="no"?>
<svg
   width="700pt"
   height="700pt"
   version="1.1"
   viewBox="0 0 700 700"
   id="svg4"
   sodipodi:docname="noun-search-5079144.svg"
   xmlns:inkscape="http://www.inkscape.org/namespaces/inkscape"
   xmlns:sodipodi="http://sodipodi.sourceforge.net/DTD/sodipodi-0.dtd"
   xmlns="http://www.w3.org/2000/svg"
   xmlns:svg="http://www.w3.org/2000/svg">
  <defs
     id="defs8" />
  <sodipodi:namedview
     id="namedview6"
     pagecolor="#ffffff"
     bordercolor="#666666"
     borderopacity="1.0"
     inkscape:showpageshadow="2"
     inkscape:pageopacity="0.0"
     inkscape:pagecheckerboard="0"
     inkscape:deskcolor="#d1d1d1"
     inkscape:document-units="pt"
     showgrid="false" />
  <path
     d="M 436.06178,0.00421016 C 368.44902,-0.02453962 300.84361,25.656726 249.37224,77.128103 161.44914,165.05561 148.66116,300.14866 210.93174,401.84014 L 25.655388,561.3256 c -0.362265,0.33351 -0.707292,0.68428 -1.046563,1.04656 -31.7248567,31.72486 -33.2366858,83.33314 -1.851585,114.71942 31.420136,31.42014 85.47796,32.48887 115.92653,-2.89824 L 297.96313,488.9906 c 101.68854,62.40306 236.84341,49.55031 324.8298,-38.4405 102.94276,-102.94276 102.94276,-270.36274 0,-373.305496 C 571.32156,25.773227 503.67493,0.02944166 436.05922,0 Z m 0,40.93715184 c 56.97403,0.02875 113.95394,21.851599 157.54231,65.450278 87.18705,87.19147 87.30776,227.90787 0.12645,315.09934 -87.18705,87.19146 -227.99619,87.19146 -315.17294,0 -8.89005,-8.89006 -16.87154,-18.32596 -23.95079,-28.21689 C 192.27294,306.15034 200.25457,184.62107 278.5576,106.32098 322.15039,62.722301 379.09056,40.922225 436.07047,40.951667 Z m 0.68429,47.860359 c -9.90786,-0.02871 -19.79805,0.782044 -29.54471,2.415099 -34.65724,5.802067 -67.64662,22.02972 -93.86883,47.77939 -3.91015,3.82977 -6.14138,9.0567 -6.19305,14.53108 -0.0518,5.47438 2.07593,10.74738 5.91703,14.65179 3.84126,3.89866 9.07981,6.10679 14.55404,6.13564 5.47424,0.0289 10.7359,-2.11612 14.62883,-5.9746 40.18344,-39.46948 100.53884,-49.46492 151.389,-25.23886 4.93957,2.36917 10.62078,2.67389 15.78514,0.8453 5.16952,-1.82862 9.39027,-5.63528 11.74222,-10.58633 2.36917,-4.93958 2.67963,-10.62668 0.85104,-15.79104 -1.82862,-5.16951 -5.64102,-9.39027 -10.59208,-11.74221 C 487.56843,94.464264 462.07049,88.880359 436.74624,88.800867 Z M 235.2032,435.30058 c 4.49677,5.26152 9.19478,10.40233 14.1688,15.37591 4.92809,4.92809 10.0056,9.5915 15.21545,14.04809 L 107.369,647.26285 c -14.226356,16.53149 -40.338014,15.80723 -55.387118,0.76479 -15.037326,-15.03732 -14.893062,-39.71679 1.69054,-56.43377 z"
     fill-rule="evenodd"
     id="path2"
     style="stroke-width:1.47208" />
</svg>
