<?xml version="1.0" encoding="UTF-8" standalone="no"?>
<svg
   version="1.1"
   x="0px"
   y="0px"
   viewBox="0 0 100 100"
   xml:space="preserve"
   id="svg18"
   sodipodi:docname="experiment-darktheme.svg"
   width="100"
   height="100"
   inkscape:version="1.1 (c4e8f9ed74, 2021-05-24)"
   xmlns:inkscape="http://www.inkscape.org/namespaces/inkscape"
   xmlns:sodipodi="http://sodipodi.sourceforge.net/DTD/sodipodi-0.dtd"
   xmlns="http://www.w3.org/2000/svg"
   xmlns:svg="http://www.w3.org/2000/svg"><defs
     id="defs22" /><sodipodi:namedview
     id="namedview20"
     pagecolor="#ffffff"
     bordercolor="#666666"
     borderopacity="1.0"
     inkscape:pageshadow="2"
     inkscape:pageopacity="0.0"
     inkscape:pagecheckerboard="0"
     showgrid="false"
     fit-margin-top="0"
     fit-margin-left="0"
     fit-margin-right="0"
     fit-margin-bottom="0"
     inkscape:zoom="5.28"
     inkscape:cx="-10.890152"
     inkscape:cy="62.405303"
     inkscape:window-width="1920"
     inkscape:window-height="1015"
     inkscape:window-x="0"
     inkscape:window-y="0"
     inkscape:window-maximized="1"
     inkscape:current-layer="svg18" /><path
     d="M 62.014445,85.461204 C 61.887626,85.01729 61.253532,84.795333 60.746256,85.128268 54.912586,90.78817 46.41572,94.339481 36.904302,94.117524 19.910568,93.784589 6.2141264,81.244022 6.5945831,66.372907 6.8482209,56.162888 13.442804,47.395589 23.081041,42.845472 c 1.902284,-0.887827 3.931386,-1.553698 5.960489,-2.108591 0.380456,-0.110978 0.634094,-0.443913 0.634094,-0.776849 V 19.983908 c 0,-0.443914 0.380457,-0.776849 0.887732,-0.776849 h 14.076899 c 0.507276,0 0.887732,0.332935 0.887732,0.776849 v 19.976124 c 0,0.332936 0.253638,0.665871 0.634095,0.776849 2.155921,0.554893 4.058205,1.220764 5.960489,2.108591 2.790015,1.331742 5.453213,2.996419 7.609134,4.994031 0.507276,0.443914 1.395008,0.110979 1.395008,-0.554892 v -5.881859 c 0,-0.221957 -0.126819,-0.443914 -0.380457,-0.554892 -2.536378,-1.775656 -5.199575,-3.218376 -8.243229,-4.32816 -0.380456,-0.110979 -0.507275,-0.443914 -0.507275,-0.77685 V 19.983908 c 0,-0.443914 0.380456,-0.776849 0.887732,-0.776849 h 4.6923 c 0.634094,0 1.268189,-0.443914 1.268189,-1.109785 v -5.548923 c 0,-0.554893 -0.507276,-1.109785 -1.268189,-1.109785 H 17.501009 c -0.634094,0 -1.268189,0.443914 -1.268189,1.109785 v 5.548923 c 0,0.554892 0.507276,1.109785 1.268189,1.109785 h 4.6923 c 0.507275,0 0.887732,0.332935 0.887732,0.776849 v 15.980899 c 0,0.332936 -0.253638,0.554893 -0.507276,0.77685 C 9.2577802,41.735688 0,53.388427 0,66.9278 c 0,18.311447 17.120552,33.18256 38.045672,33.071583 10.145512,0 19.403293,-3.66229 26.251514,-9.43317 0.253637,-0.221957 0.253637,-0.554892 0.126818,-0.776849 -1.268189,-1.331742 -1.902283,-2.774462 -2.409559,-4.32816 z"
     id="path2"
     style="stroke-width:1.18635;fill:#ffffff" /><path
     d="m 14.457355,67.371714 c -0.760913,0 -1.521827,0.554892 -1.395008,1.331741 0.760914,11.319804 11.540521,20.30906 24.729687,20.30906 13.189166,0 23.968773,-8.989256 24.729687,-20.30906 0,-0.665871 -0.634095,-1.331741 -1.395008,-1.331741 z m 14.330537,15.093071 c 0,0.221957 -0.253638,0.332935 -0.380457,0.221957 -4.185024,-1.997612 -7.355497,-5.215988 -9.25778,-9.100234 -0.126819,-0.110979 0,-0.332936 0.253638,-0.332936 h 1.775464 c 0.126819,0 0.253638,0 0.253638,0.110979 1.521827,2.996418 4.058205,5.437945 7.228678,7.102622 0.126819,0 0.126819,0.110978 0.126819,0.221957 z"
     id="path4"
     style="stroke-width:1.18635;fill:#ffffff" /><path
     d="M 99.045566,25.421853 H 62.521721 c -0.634095,0 -1.14137,0.443914 -1.14137,0.998806 v 4.217182 c 0,0.554892 0.507275,0.998806 1.14137,0.998806 h 2.790016 c 0.253638,0 0.507275,0.221957 0.507275,0.443914 v 47.720741 c 0,7.2136 6.848221,13.317416 15.09145,13.206437 8.11641,-0.110978 14.584175,-5.881858 14.584175,-12.98448 V 32.080561 c 0,-0.221957 0.253637,-0.443914 0.507275,-0.443914 h 2.790016 c 0.634095,0 1.14137,-0.443914 1.14137,-0.998806 V 26.420659 C 100.18694,25.865767 99.67966,25.421853 99.045566,25.421853 Z M 80.910462,87.90273 C 75.964525,88.013708 71.90632,84.351419 71.90632,80.023259 V 32.302518 c 0,-0.221957 0.253638,-0.443914 0.507276,-0.443914 h 16.486457 c 0.253638,0 0.507276,0.221957 0.507276,0.443914 v 47.942698 c 0.126819,4.217181 -3.677748,7.546535 -8.496867,7.657514 z"
     id="path6"
     style="stroke-width:1.18635;fill:#ffffff" /><path
     d="m 86.236856,53.388427 c -1.014551,0.998806 -2.663197,0.776849 -3.931386,-0.443914 -0.380456,-0.332936 -0.760913,-0.665871 -1.268189,-0.887828 -2.28274,-1.109785 -4.692299,-0.776849 -6.087307,0.776849 0,0 0,0.110979 0,0.110979 v 26.856789 c 0,2.88544 2.663197,5.105009 5.833669,5.105009 3.297292,0 5.83367,-2.330547 5.83367,-5.105009 V 53.610384 c 0,-0.221957 -0.253638,-0.332936 -0.380457,-0.221957 z"
     id="path8"
     style="stroke-width:1.18635;fill:#ffffff" /><path
     d="m 79.134998,8.775083 c -3.804568,0.8878278 -6.087308,4.217182 -5.072757,7.546536 1.014552,3.329354 4.819119,5.326966 8.623686,4.439138 3.804567,-0.887827 6.087307,-4.217181 5.072756,-7.546535 C 86.744132,9.8848677 82.939565,7.8872553 79.134998,8.775083 Z m 2.409559,9.322191 0.126819,0.332936 c 0,0.110978 0,0.221956 0,0.332935 0,0.110978 -0.126819,0.110978 -0.253638,0.221957 v 0 c -0.380457,0 -0.760914,0 -1.14137,0 -2.790016,0 -3.931386,-1.886634 -4.058205,-3.66229 0,-0.110978 0,-0.221956 0.126819,-0.221956 0.126819,-0.110979 0.253637,-0.110979 0.253637,-0.110979 h 0.507276 c 0.253638,0 0.380457,0.110979 0.507276,0.332935 0.126819,0.887828 0.507275,2.552505 2.790016,2.552505 0.253637,0 0.507275,0 0.760913,-0.110978 0.126819,0 0.380457,0.110978 0.380457,0.332935 z"
     id="path10"
     style="stroke-width:1.18635;fill:#ffffff" /><path
     d="M 91.055975,8.775083 C 93.719172,8.2201907 95.367818,5.7786644 94.733723,3.3371382 94.099629,1.0065903 91.309613,-0.43612977 88.519597,0.11876256 85.8564,0.6736549 84.207754,3.1151812 84.841848,5.5567075 c 0.760914,2.4415263 3.55093,3.8842463 6.214127,3.2183755 z"
     id="path12"
     style="stroke-width:1.18635;fill:#ffffff" /></svg>
