<?xml version="1.0" encoding="UTF-8" standalone="no"?>
<svg
   viewBox="0 0 64 64"
   version="1.1"
   xml:space="preserve"
   x="0px"
   y="0px"
   fill-rule="evenodd"
   clip-rule="evenodd"
   stroke-linejoin="round"
   stroke-miterlimit="2"
   id="svg24"
   sodipodi:docname="filter-darktheme.svg"
   width="64"
   height="64"
   inkscape:version="1.1 (c4e8f9ed74, 2021-05-24)"
   xmlns:inkscape="http://www.inkscape.org/namespaces/inkscape"
   xmlns:sodipodi="http://sodipodi.sourceforge.net/DTD/sodipodi-0.dtd"
   xmlns="http://www.w3.org/2000/svg"
   xmlns:svg="http://www.w3.org/2000/svg"><defs
     id="defs28" /><sodipodi:namedview
     id="namedview26"
     pagecolor="#ffffff"
     bordercolor="#666666"
     borderopacity="1.0"
     inkscape:pageshadow="2"
     inkscape:pageopacity="0.0"
     inkscape:pagecheckerboard="0"
     showgrid="false"
     fit-margin-top="0"
     fit-margin-left="0"
     fit-margin-right="0"
     fit-margin-bottom="0"
     inkscape:zoom="8.1230769"
     inkscape:cx="32.438447"
     inkscape:cy="40.563447"
     inkscape:window-width="1920"
     inkscape:window-height="1015"
     inkscape:window-x="0"
     inkscape:window-y="0"
     inkscape:window-maximized="1"
     inkscape:current-layer="svg24" /><g
     transform="translate(-304.782,-189.535)"
     id="g18"
     style="fill:#ffffff"><g
       transform="translate(304.782,189.535)"
       id="g16"
       style="fill:#ffffff"><rect
         x="0"
         y="0"
         width="64"
         height="64"
         fill="none"
         id="rect2"
         style="fill:#ffffff" /><g
         transform="translate(-304.782,-189.535)"
         id="g6"
         style="fill:#ffffff"><path
           d="m 328.79,216.619 -22.885,-17.236 c -0.366,-0.276 -0.581,-0.707 -0.581,-1.165 0,0 0,-2.596 0,-2.593 -0.002,-1.348 0.01,-2.29 0.131,-2.951 0.139,-0.756 0.419,-1.274 0.805,-1.66 0.386,-0.385 0.904,-0.664 1.66,-0.803 0.66,-0.121 1.603,-0.134 2.95,-0.134 h 51.825 c 1.346,0 2.289,0.013 2.95,0.134 0.755,0.139 1.273,0.418 1.659,0.803 0.387,0.386 0.667,0.904 0.805,1.66 0.121,0.661 0.134,1.603 0.131,2.948 l 10e-4,2.595 c 0,0.459 -0.215,0.89 -0.581,1.166 l -22.885,17.236 v 21.849 c 0,0.387 -0.154,0.758 -0.428,1.031 l -13.067,13.068 c -0.417,0.417 -1.044,0.541 -1.589,0.316 -0.545,-0.226 -0.901,-0.758 -0.901,-1.348 z m 36.41,-23.514 c -0.096,-0.022 -0.239,-0.05 -0.356,-0.062 -0.531,-0.053 -1.23,-0.049 -2.149,-0.049 0,0 -51.825,0 -51.825,0 -0.919,0 -1.618,-0.004 -2.15,0.049 -0.116,0.012 -0.259,0.04 -0.356,0.062 -0.031,0.318 -0.125,1.4 -0.123,2.515 v 1.87 l 22.885,17.237 c 0.366,0.275 0.581,0.707 0.581,1.165 v 32.123 l 10.151,-10.151 v -21.973 c 0,-0.458 0.215,-0.889 0.581,-1.165 l 22.885,-17.235 v -1.871 c 0.002,-1.115 -0.093,-2.197 -0.124,-2.515 z"
           id="path4"
           style="fill:#ffffff" /></g><g
         transform="translate(-309.542,-191.579)"
         id="g10"
         style="fill:#ffffff"><path
           d="m 344.775,216.618 v 13.013 c 0,0.805 -0.654,1.458 -1.459,1.458 -0.805,0 -1.458,-0.653 -1.458,-1.458 v -13.74 c 0,-0.457 0.215,-0.889 0.58,-1.164 l 19.226,-14.5 c 0.642,-0.484 1.558,-0.356 2.042,0.287 0.485,0.642 0.357,1.557 -0.286,2.042 z"
           id="path8"
           style="fill:#ffffff" /></g><g
         transform="translate(-309.542,-191.579)"
         id="g14"
         style="fill:#ffffff"><path
           d="m 341.858,234.837 v 3.631 c 0,0.805 0.653,1.458 1.458,1.458 0.805,0 1.459,-0.653 1.459,-1.458 v -3.631 c 0,-0.805 -0.654,-1.459 -1.459,-1.459 -0.805,0 -1.458,0.654 -1.458,1.459 z"
           id="path12"
           style="fill:#ffffff" /></g></g></g></svg>
