<?xml version="1.0" encoding="UTF-8" standalone="no"?>
<svg
   version="1.1"
   x="0px"
   y="0px"
   viewBox="0 0 100 100"
   xml:space="preserve"
   id="svg16"
   sodipodi:docname="finder-darktheme.svg"
   width="100"
   height="100"
   inkscape:version="1.1 (c4e8f9ed74, 2021-05-24)"
   xmlns:inkscape="http://www.inkscape.org/namespaces/inkscape"
   xmlns:sodipodi="http://sodipodi.sourceforge.net/DTD/sodipodi-0.dtd"
   xmlns="http://www.w3.org/2000/svg"
   xmlns:svg="http://www.w3.org/2000/svg"><defs
     id="defs20" /><sodipodi:namedview
     id="namedview18"
     pagecolor="#ffffff"
     bordercolor="#666666"
     borderopacity="1.0"
     inkscape:pageshadow="2"
     inkscape:pageopacity="0.0"
     inkscape:pagecheckerboard="0"
     showgrid="false"
     fit-margin-top="0"
     fit-margin-left="0"
     fit-margin-right="0"
     fit-margin-bottom="0"
     inkscape:zoom="5.28"
     inkscape:cx="49.905303"
     inkscape:cy="62.405303"
     inkscape:window-width="1920"
     inkscape:window-height="1015"
     inkscape:window-x="0"
     inkscape:window-y="0"
     inkscape:window-maximized="1"
     inkscape:current-layer="svg16" /><path
     d="M 81.549231,47.861196 C 82.81307,66.983168 66.983961,82.812574 47.862082,81.549223 32.079946,80.506529 19.324875,67.627065 18.432026,51.835748 c -0.31889,-5.64001 0.841789,-10.986854 3.139336,-15.683147 0.753353,-1.539894 2.806705,-1.874634 4.018896,-0.662441 l 3e-6,4e-6 c 0.749932,0.749931 0.946496,1.891407 0.480822,2.844268 -1.856808,3.799412 -2.838757,8.113953 -2.672974,12.654099 0.525452,14.390152 12.773322,25.928215 27.169878,25.625473 C 64.797903,76.314756 76.314817,64.797842 76.614065,50.567926 76.916807,36.171365 65.378744,23.9235 50.988592,23.398046 c -4.540142,-0.165781 -8.854683,0.816166 -12.654091,2.672972 -0.952865,0.465673 -2.094345,0.269106 -2.844272,-0.480835 l -4e-6,-4e-6 c -1.212162,-1.212185 -0.877426,-3.265507 0.662445,-4.018856 4.69614,-2.297491 10.042774,-3.458179 15.682621,-3.139389 15.791225,0.89259 28.670849,13.647261 29.71394,29.429262 z"
     id="path2"
     style="fill:#ffffff" /><path
     d="M 53.273458,0.10523427 C 41.88999,-0.62548643 31.250931,2.4871163 22.50642,8.2628147 c -1.097569,0.7249374 -1.516796,2.2065963 -0.863735,3.3483943 0.747755,1.307358 2.381765,1.65197 3.55467,0.871601 C 32.420149,7.6772649 41.101797,4.9170462 50.417189,5.0018989 74.016745,5.2168642 93.712827,24.043227 94.937849,47.611945 96.32514,74.302619 74.30007,96.32672 47.608976,94.937697 24.260126,93.722601 5.5171468,74.368422 5.0107681,50.99346 4.788521,40.734297 8.0177891,31.219231 13.640136,23.541868 c 0.879882,-1.22998 1.829834,-2.400024 2.839842,-3.530029 L 38.34326,41.882017 c -0.866944,1.263428 -1.676026,2.788147 -2.093262,4.267944 -0.328705,1.146279 -0.507626,2.354306 -0.528053,3.607575 -0.116364,7.138744 4.838585,13.179836 11.885475,14.327247 8.619354,1.403458 16.12521,-4.945438 16.644218,-13.174476 0.294838,-4.674675 -1.701763,-9.312561 -5.411087,-12.201065 -1.609703,-1.253495 -3.494354,-2.119782 -5.478462,-2.582653 -1.686447,-0.393433 -3.955128,-0.59478 -4.309605,1.670879 -0.466133,2.979454 3.367669,3.014618 5.165089,3.934612 2.069794,1.059407 3.700634,2.896973 4.500176,5.080971 0.424457,1.159435 0.609905,2.400505 0.552009,3.63345 -0.22092,4.704895 -4.117084,8.60133 -8.821945,8.822891 -5.111217,0.240696 -9.367763,-3.663677 -9.707825,-8.629379 -0.01001,-0.210022 -0.02002,-0.430054 -0.02002,-0.640015 0,-1.529053 0.51123,-3.238892 1.189697,-4.550354 l 4.550461,4.551819 c 0.977421,0.977718 2.562408,0.97784 3.539985,2.82e-4 l 4e-6,-4e-6 c 0.977486,-0.97747 0.977494,-2.562278 1.6e-5,-3.539756 L 16.41992,12.881833 c -2.206054,2.295593 -4.430663,4.536195 -6.359862,7.078126 C 3.3039095,28.932388 -0.5174188,40.220541 0.0566457,52.40056 1.223795,77.16416 20.763697,97.606893 45.457754,99.798086 76.608076,102.56216 102.58899,76.56233 99.793539,45.406793 97.60829,21.052059 77.67581,1.6716553 53.273458,0.10523427 Z"
     id="path4"
     style="fill:#ffffff" /><circle
     cx="87.720222"
     cy="44.535324"
     r="2.6949601"
     id="circle6"
     style="fill:#ffffff" /><circle
     cx="54.720222"
     cy="88.785324"
     r="2.6949601"
     id="circle8"
     style="fill:#ffffff" /><circle
     cx="31.470219"
     cy="56.535324"
     r="2.6949601"
     id="circle10"
     style="fill:#ffffff" /></svg>
