<?xml version="1.0" encoding="UTF-8" standalone="no"?>
<svg
   data-name="Layer 1"
   viewBox="0 0 100 100"
   x="0px"
   y="0px"
   version="1.1"
   id="svg103"
   sodipodi:docname="home-darktheme.svg"
   width="100"
   height="100"
   inkscape:version="1.1 (c4e8f9ed74, 2021-05-24)"
   xmlns:inkscape="http://www.inkscape.org/namespaces/inkscape"
   xmlns:sodipodi="http://sodipodi.sourceforge.net/DTD/sodipodi-0.dtd"
   xmlns:xlink="http://www.w3.org/1999/xlink"
   xmlns="http://www.w3.org/2000/svg"
   xmlns:svg="http://www.w3.org/2000/svg"
   xmlns:rdf="http://www.w3.org/1999/02/22-rdf-syntax-ns#"
   xmlns:cc="http://creativecommons.org/ns#"
   xmlns:dc="http://purl.org/dc/elements/1.1/">
  <defs
     id="defs107">
    <clipPath
       clipPathUnits="userSpaceOnUse"
       id="clipPath524">
      <use
         x="0"
         y="0"
         xlink:href="#g520"
         id="use526"
         width="100%"
         height="100%" />
    </clipPath>
  </defs>
  <sodipodi:namedview
     id="namedview105"
     pagecolor="#ffffff"
     bordercolor="#666666"
     borderopacity="1.0"
     inkscape:pageshadow="2"
     inkscape:pageopacity="0.0"
     inkscape:pagecheckerboard="0"
     showgrid="false"
     height="100px"
     fit-margin-top="0"
     fit-margin-left="0"
     fit-margin-right="0"
     fit-margin-bottom="0"
     inkscape:zoom="5.28"
     inkscape:cx="49.905303"
     inkscape:cy="62.405303"
     inkscape:window-width="1920"
     inkscape:window-height="1015"
     inkscape:window-x="0"
     inkscape:window-y="0"
     inkscape:window-maximized="1"
     inkscape:current-layer="svg103" />
  <title
     id="title89">07</title>
  <g
     id="g534"
     style="fill:#ffffff">
    <g
       id="g522"
       clip-path="url(#clipPath524)"
       style="fill:#ffffff">
      <g
         inkscape:label="Clip"
         id="g520"
         style="fill:#ffffff">
        <g
           data-name="Group"
           id="g97"
           transform="matrix(1.087093,0,0,1.0767534,-4.3621084,-3.9928465)"
           style="fill:#ffffff">
          <path
             data-name="Compound Path"
             d="M 83.36,19.67 A 3,3 0 0 0 80.69,18 H 75.61 V 11.73 A 8.31,8.31 0 0 0 59,11.73 V 18 H 19.31 a 3,3 0 0 0 -2.67,1.63 L 4.37,43.58 A 3,3 0 0 0 7,48 h 0.22 v 37.58 a 11,11 0 0 0 11,11 h 23.69 a 3,3 0 0 0 3,-3 V 76.4 a 5.09,5.09 0 0 1 10.17,0 v 17.18 a 3,3 0 0 0 3,3 h 23.66 a 11,11 0 0 0 11,-11 V 48 H 93 a 3,3 0 0 0 2.67,-4.37 z M 65,11.73 a 2.31,2.31 0 0 1 4.61,0 V 18 H 65 Z M 21.14,24 H 78.86 L 88,42 H 12 Z m 65.6,61.54 a 5,5 0 0 1 -5,5 H 61.09 V 76.4 a 11.09,11.09 0 0 0 -22.17,0 V 90.58 H 18.26 a 5,5 0 0 1 -5,-5 V 48 h 73.48 z"
             id="path91"
             style="fill:#ffffff" />
          <path
             data-name="Compound Path"
             d="m 19.65,75.21 h 12.81 a 3,3 0 0 0 3,-3 v -7.73 a 9.41,9.41 0 0 0 -18.81,0 v 7.72 a 3,3 0 0 0 3,3.01 z m 3,-10.72 a 3.41,3.41 0 0 1 6.81,0 v 4.72 h -6.81 z"
             id="path93"
             style="fill:#ffffff" />
          <path
             data-name="Compound Path"
             d="m 67.54,75.21 h 12.81 a 3,3 0 0 0 3,-3 v -7.73 a 9.41,9.41 0 0 0 -18.81,0 v 7.72 a 3,3 0 0 0 3,3.01 z m 3,-10.72 a 3.41,3.41 0 0 1 6.81,0 v 4.72 h -6.81 z"
             id="path95"
             style="fill:#ffffff" />
        </g>
      </g>
    </g>
  </g>
  <metadata
     id="metadata700">
    <rdf:RDF>
      <cc:Work
         rdf:about="">
        <dc:title>07</dc:title>
      </cc:Work>
    </rdf:RDF>
  </metadata>
</svg>
