<?xml version="1.0" encoding="UTF-8" standalone="no"?>
<svg
   version="1.1"
   x="0px"
   y="0px"
   viewBox="0 0 50 50"
   xml:space="preserve"
   id="svg8"
   sodipodi:docname="indexer-darktheme.svg"
   width="50"
   height="50"
   inkscape:version="1.1 (c4e8f9ed74, 2021-05-24)"
   xmlns:inkscape="http://www.inkscape.org/namespaces/inkscape"
   xmlns:sodipodi="http://sodipodi.sourceforge.net/DTD/sodipodi-0.dtd"
   xmlns="http://www.w3.org/2000/svg"
   xmlns:svg="http://www.w3.org/2000/svg"><defs
     id="defs12" /><sodipodi:namedview
     id="namedview10"
     pagecolor="#ffffff"
     bordercolor="#666666"
     borderopacity="1.0"
     inkscape:pageshadow="2"
     inkscape:pageopacity="0.0"
     inkscape:pagecheckerboard="0"
     showgrid="false"
     fit-margin-top="0"
     fit-margin-left="0"
     fit-margin-right="0"
     fit-margin-bottom="0"
     inkscape:zoom="8.8"
     inkscape:cx="25.056818"
     inkscape:cy="37.443182"
     inkscape:window-width="1920"
     inkscape:window-height="1015"
     inkscape:window-x="0"
     inkscape:window-y="0"
     inkscape:window-maximized="1"
     inkscape:current-layer="svg8" /><path
     d="M 0,44.62 C 0,47.59 2.4287435,50 5.399438,50 c 2.639502,0 4.827379,-1.89 5.299077,-4.38 h 17.743878 c 0.471698,2.49 2.659574,4.38 5.299076,4.38 2.970695,0 5.389402,-2.41 5.389402,-5.38 0,-1.33 -0.511842,-2.54 -1.314733,-3.48 l 4.245283,-4.86 c 0.762746,0.41 1.615817,0.67 2.539141,0.67 C 47.581293,36.95 50,34.54 50,31.57 50,28.94 48.103171,26.76 45.604175,26.29 V 10.66 C 48.103171,10.19 50,8.01 50,5.38 50,2.42 47.581293,0 44.600562,0 41.971096,0 39.78322,1.9 39.311521,4.38 H 21.62786 C 21.156162,1.9 18.968286,0 16.328784,0 c -2.970695,0 -5.399438,2.42 -5.399438,5.38 0,1.3 0.49177,2.48 1.264552,3.42 L 7.90847,13.71 C 7.155761,13.31 6.312726,13.06 5.399438,13.06 2.4287435,13.06 0,15.47 0,18.44 c 0,2.62 1.9068647,4.81 4.395825,5.28 V 39.34 C 1.9068647,39.81 0,42 0,44.62 Z M 15.325171,10.66 v 6.78 H 10.688479 C 10.507828,16.5 10.076275,15.65 9.474107,14.95 l 4.255319,-4.88 c 0.501806,0.27 1.033721,0.48 1.595745,0.59 z M 21.62786,6.38 h 17.683661 c 0.180651,0.93 0.602168,1.76 1.1943,2.45 l -4.265355,4.87 c -0.75271,-0.4 -1.595745,-0.64 -2.498997,-0.64 -2.639502,0 -4.827378,1.89 -5.299076,4.38 H 17.332397 v -6.78 c 2.17784,-0.41 3.883982,-2.11 4.295463,-4.28 z m 21.969089,4.28 v 15.63 c -2.167804,0.41 -3.873946,2.11 -4.285428,4.28 h -4.576475 v -6.85 c 2.498997,-0.47 4.385789,-2.66 4.385789,-5.28 0,-1.34 -0.511843,-2.55 -1.314733,-3.49 l 4.255319,-4.85 c 0.481734,0.25 0.993577,0.46 1.535528,0.56 z m -8.851867,28.68 v -6.77 h 4.576476 c 0.170614,0.93 0.602167,1.76 1.184263,2.45 l -4.255319,4.87 c -0.471698,-0.25 -0.973505,-0.45 -1.50542,-0.55 z m -6.302689,4.28 H 10.698515 C 10.517864,42.68 10.086311,41.84 9.484143,41.14 l 4.295464,-4.86 c 0.762745,0.41 1.625853,0.67 2.549177,0.67 2.639502,0 4.827378,-1.89 5.299076,-4.38 h 11.109996 v 6.77 c -2.17784,0.41 -3.883982,2.12 -4.295463,4.28 z m 0,-24.18 c 0.411481,2.16 2.117623,3.87 4.285427,4.28 v 6.85 H 21.62786 C 21.216379,28.41 19.510237,26.7 17.342433,26.29 v -6.85 z m -17.743878,0 h 4.636692 v 6.85 c -2.498997,0.47 -4.395825,2.65 -4.395825,5.28 0,1.32 0.501806,2.51 1.294661,3.45 l -4.3055,4.87 C 7.456845,39.64 6.955038,39.44 6.423123,39.34 V 23.72 c 2.157768,-0.41 3.86391,-2.12 4.275392,-4.28 z"
     id="path2"
     style="stroke-width:1.0018;fill:#ffffff" /></svg>
