<?xml version="1.0" encoding="UTF-8" standalone="no"?>
<svg
   version="1.1"
   x="0px"
   y="0px"
   viewBox="0 0 100 100"
   enable-background="new 0 0 100 100"
   xml:space="preserve"
   id="svg14"
   sodipodi:docname="integrator-darktheme.svg"
   width="100"
   height="100"
   inkscape:version="1.1 (c4e8f9ed74, 2021-05-24)"
   xmlns:inkscape="http://www.inkscape.org/namespaces/inkscape"
   xmlns:sodipodi="http://sodipodi.sourceforge.net/DTD/sodipodi-0.dtd"
   xmlns="http://www.w3.org/2000/svg"
   xmlns:svg="http://www.w3.org/2000/svg"><defs
     id="defs18" /><sodipodi:namedview
     id="namedview16"
     pagecolor="#ffffff"
     bordercolor="#666666"
     borderopacity="1.0"
     inkscape:pageshadow="2"
     inkscape:pageopacity="0.0"
     inkscape:pagecheckerboard="0"
     showgrid="false"
     fit-margin-top="0"
     fit-margin-left="0"
     fit-margin-right="0"
     fit-margin-bottom="0"
     inkscape:zoom="5.28"
     inkscape:cx="35.511364"
     inkscape:cy="62.405303"
     inkscape:window-width="1920"
     inkscape:window-height="1015"
     inkscape:window-x="0"
     inkscape:window-y="0"
     inkscape:window-maximized="1"
     inkscape:current-layer="svg14" /><g
     id="g8"
     transform="matrix(1.0459282,0,0,1.1918917,-2.302744,-9.5351336)"
     style="fill:#ffffff"><path
       d="M 65.5,8 C 45.9,8 46,39.1 46,50.8 v 0 c 0.1,7.3 -0.3,37.2 -9,37.9 -5.6,0.4 -4.6,-6.5 -9.3,-4.2 -4,2 2.1,7.4 6.7,7.4 C 54.1,92 54,60.9 54,49.2 v 0 c -0.1,-7.3 0.3,-37.2 9,-37.9 5.6,-0.4 4.6,6.5 9.3,4.2 C 76.2,13.4 70.2,8 65.5,8 Z"
       id="path2"
       style="fill:#ffffff" /><path
       d="M 89.8,8 C 70.2,8 70.3,39 70.4,50.8 v 0 c 0.1,7.3 -0.3,37.2 -9,37.9 -5.6,0.4 -4.6,-6.5 -9.3,-4.2 -4,2 2.1,7.4 6.7,7.4 19.6,0 19.5,-31 19.4,-42.8 v 0 c -0.1,-7.3 0.3,-37.2 9,-37.9 5.6,-0.4 4.6,6.5 9.3,4.2 4,-2 -2,-7.4 -6.7,-7.4 z"
       id="path4"
       style="fill:#ffffff" /><path
       d="M 41.2,8 C 21.6,8 21.7,39 21.8,50.8 v 0 c 0.1,7.3 -0.3,37.2 -9,37.9 -5.6,0.4 -4.6,-6.5 -9.3,-4.2 -4,2 2.1,7.4 6.7,7.4 19.6,0 19.5,-31 19.4,-42.8 v 0 c -0.1,-7.3 0.3,-37.2 9,-37.9 5.6,-0.4 4.6,6.5 9.3,4.2 4,-2 -2,-7.4 -6.7,-7.4 z"
       id="path6"
       style="fill:#ffffff" /></g></svg>
