<?xml version="1.0" encoding="UTF-8" standalone="no"?>
<svg
   version="1.1"
   x="0px"
   y="0px"
   viewBox="0 0 99.999997 100"
   enable-background="new 0 0 97.8 97.8"
   xml:space="preserve"
   id="svg8"
   sodipodi:docname="merger-darktheme.svg"
   width="100"
   height="100"
   inkscape:version="1.1 (c4e8f9ed74, 2021-05-24)"
   xmlns:inkscape="http://www.inkscape.org/namespaces/inkscape"
   xmlns:sodipodi="http://sodipodi.sourceforge.net/DTD/sodipodi-0.dtd"
   xmlns="http://www.w3.org/2000/svg"
   xmlns:svg="http://www.w3.org/2000/svg"><defs
     id="defs12" /><sodipodi:namedview
     id="namedview10"
     pagecolor="#ffffff"
     bordercolor="#666666"
     borderopacity="1.0"
     inkscape:pageshadow="2"
     inkscape:pageopacity="0.0"
     inkscape:pagecheckerboard="0"
     showgrid="false"
     showguides="false"
     inkscape:zoom="5.398773"
     inkscape:cx="63.440341"
     inkscape:cy="61.217614"
     inkscape:window-width="1920"
     inkscape:window-height="1015"
     inkscape:window-x="0"
     inkscape:window-y="0"
     inkscape:window-maximized="1"
     inkscape:current-layer="svg8" /><path
     d="m 73.296864,93.99376 c 0,3.299308 -2.70766,6.00624 -6.00624,6.00624 -3.298581,0 -5.967239,-2.706932 -5.967239,-6.00624 0,-3.29858 2.668658,-5.967239 5.967239,-5.967239 3.29858,0 6.00624,2.66793 6.00624,5.967239 z m -2.028081,-8.892356 h -9.126365 c 0,-9.583239 -4.730556,-14.36456 -9.321373,-18.99376 -1.11962,-1.127109 -2.274148,-2.271947 -3.315133,-3.471139 -1.04192,1.199192 -2.157447,2.34403 -3.276131,3.471139 -4.591754,4.6292 -9.321372,9.410521 -9.321372,18.99376 h -9.126365 c 0,-13.34183 6.915529,-20.330813 11.973478,-25.429017 3.000321,-3.02466 4.833348,-4.946737 5.187208,-7.020281 -0.01123,-0.23029 -0.03807,-0.465186 -0.039,-0.702028 0,-0.0065 0,-0.03151 0,-0.039 v -21.95788 l -9.477379,3.74415 c -0.318287,0.124505 -0.692022,0.0012 -0.897036,-0.273011 -0.102976,-0.134804 -0.156006,-0.268001 -0.156006,-0.429017 0,-0.162888 0.05116,-0.331342 0.156006,-0.468019 L 48.881888,13.884555 c 0.144164,-0.187227 0.349115,-0.312012 0.585023,-0.312012 0.235906,0 0.440859,0.12478 0.585023,0.312012 l 14.352574,18.642746 c 0.208758,0.27148 0.20595,0.62462 0,0.897036 -0.205014,0.274285 -0.578749,0.398454 -0.897035,0.273011 l -9.47738,-3.74415 v 21.918877 h 0.117005 c 0,0.25463 -0.0259,0.53289 -0.039,0.780031 0.354795,2.073544 2.187824,3.996557 5.187207,7.020281 5.058888,5.098204 11.973479,12.087187 11.973478,25.429017 z M 55.512153,5.9672387 c 0,3.2993086 -2.668659,6.0062403 -5.967239,6.0062403 -3.298581,0 -5.967239,-2.7069317 -5.967239,-6.0062403 C 43.577675,2.6686577 46.246333,0 49.544914,0 c 3.29858,0 5.967239,2.6679289 5.967239,5.9672387 z M 38.663479,93.99376 C 38.663479,97.293068 35.99482,100 32.69624,100 29.397659,100 26.69,97.293068 26.69,93.99376 c 0,-3.29858 2.707659,-5.967239 6.00624,-5.967239 3.29858,0 5.967239,2.66793 5.967239,5.967239 z"
     id="path2"
     style="stroke-width:1.24805;fill:#ffffff" /></svg>
