<?xml version="1.0" encoding="UTF-8" standalone="no"?>
<svg
   version="1.1"
   x="0px"
   y="0px"
   viewBox="0 0 100 100"
   xml:space="preserve"
   id="svg24"
   sodipodi:docname="refiner-darktheme.svg"
   width="100"
   height="100"
   inkscape:version="1.1 (c4e8f9ed74, 2021-05-24)"
   xmlns:inkscape="http://www.inkscape.org/namespaces/inkscape"
   xmlns:sodipodi="http://sodipodi.sourceforge.net/DTD/sodipodi-0.dtd"
   xmlns="http://www.w3.org/2000/svg"
   xmlns:svg="http://www.w3.org/2000/svg"><defs
     id="defs28" /><sodipodi:namedview
     id="namedview26"
     pagecolor="#ffffff"
     bordercolor="#666666"
     borderopacity="1.0"
     inkscape:pageshadow="2"
     inkscape:pageopacity="0.0"
     inkscape:pagecheckerboard="0"
     showgrid="false"
     fit-margin-top="0"
     fit-margin-left="0"
     fit-margin-right="0"
     fit-margin-bottom="0"
     inkscape:zoom="5.8336309"
     inkscape:cx="32.141217"
     inkscape:cy="54.768634"
     inkscape:window-width="1920"
     inkscape:window-height="1015"
     inkscape:window-x="0"
     inkscape:window-y="0"
     inkscape:window-maximized="1"
     inkscape:current-layer="svg24" /><path
     d="m 95.540877,93.410974 h -3.294513 v 3.294513 h -6.589026 v -3.294513 h -3.294513 v 3.294513 h -6.589026 v -3.294513 h -3.294513 v 3.294513 H 65.89026 v -3.294513 h -3.294513 v 3.294513 h -6.589026 v -3.294513 h -3.294513 v 3.294513 h -6.589026 v -3.294513 h -3.294513 v 3.294513 H 36.239643 V 93.410974 H 32.94513 v 3.294513 h -6.589026 v -3.294513 h -3.294513 v 3.294513 h -6.589026 v -3.294513 h -3.294513 v 3.294513 H 3.294513 V 86.821948 H 6.589026 V 83.527435 H 3.294513 V 76.938409 H 6.589026 V 73.643896 H 3.294513 V 67.05487 H 6.589026 V 63.760357 H 3.294513 V 57.171331 H 6.589026 V 53.876818 H 3.294513 V 47.287792 H 6.589026 V 43.993279 H 3.294513 V 37.404253 H 6.589026 V 34.10974 H 3.294513 V 27.520714 H 6.589026 V 24.226201 H 3.294513 V 17.637175 H 6.589026 V 14.342662 H 3.294513 V 7.7536363 H 6.589026 V 4.4591233 H 3.294513 V 1.1646103 H 0 V 98.352744 C 0,99.263676 0.73797091,100 1.6472565,100 H 98.83539 v -3.294513 h -3.294513 z"
     id="path2"
     style="stroke-width:1.64725;fill:#ffffff" /><path
     d="m 13.178052,70.349383 c 0,2.724562 2.217207,4.94177 4.941769,4.94177 2.724563,0 4.94177,-2.217208 4.94177,-4.94177 0,-2.724562 -2.217207,-4.941769 -4.94177,-4.941769 -2.724562,0 -4.941769,2.217207 -4.941769,4.941769 z m 6.589026,0 c 0,0.909286 -0.739618,1.647257 -1.647257,1.647257 -0.907638,0 -1.647256,-0.737971 -1.647256,-1.647257 0,-0.909285 0.739618,-1.647256 1.647256,-1.647256 0.907639,0 1.647257,0.737971 1.647257,1.647256 z"
     id="path4"
     style="stroke-width:1.64725;fill:#ffffff" /><path
     d="m 28.00336,52.229562 c 0,-2.724563 -2.217207,-4.94177 -4.941769,-4.94177 -2.724562,0 -4.94177,2.217207 -4.94177,4.94177 0,2.724562 2.217208,4.941769 4.94177,4.941769 2.724562,0 4.941769,-2.217207 4.941769,-4.941769 z m -6.589026,0 c 0,-0.909286 0.739619,-1.647257 1.647257,-1.647257 0.907638,0 1.647256,0.737971 1.647256,1.647257 0,0.909285 -0.739618,1.647256 -1.647256,1.647256 -0.907638,0 -1.647257,-0.737971 -1.647257,-1.647256 z"
     id="path6"
     style="stroke-width:1.64725;fill:#ffffff" /><path
     d="m 92.246364,22.578945 c 0,-2.724562 -2.217208,-4.94177 -4.94177,-4.94177 -2.724562,0 -4.941769,2.217208 -4.941769,4.94177 0,2.724562 2.217207,4.941769 4.941769,4.941769 2.724562,0 4.94177,-2.217207 4.94177,-4.941769 z m -6.589026,0 c 0,-0.909286 0.739618,-1.647257 1.647256,-1.647257 0.907639,0 1.647257,0.737971 1.647257,1.647257 0,0.909285 -0.739618,1.647256 -1.647257,1.647256 -0.907638,0 -1.647256,-0.737971 -1.647256,-1.647256 z"
     id="path8"
     style="stroke-width:1.64725;fill:#ffffff" /><path
     d="m 32.94513,39.05151 c 0,2.724562 2.217207,4.941769 4.941769,4.941769 2.724563,0 4.94177,-2.217207 4.94177,-4.941769 0,-2.724563 -2.217207,-4.94177 -4.94177,-4.94177 -2.724562,0 -4.941769,2.217207 -4.941769,4.94177 z m 6.589026,0 c 0,0.909285 -0.739618,1.647256 -1.647257,1.647256 -0.907638,0 -1.647256,-0.737971 -1.647256,-1.647256 0,-0.909286 0.739618,-1.647257 1.647256,-1.647257 0.907639,0 1.647257,0.737971 1.647257,1.647257 z"
     id="path10"
     style="stroke-width:1.64725;fill:#ffffff" /><path
     d="m 54.359464,67.05487 c 0,2.724562 2.217208,4.94177 4.94177,4.94177 2.724562,0 4.941769,-2.217208 4.941769,-4.94177 0,-2.724562 -2.217207,-4.941769 -4.941769,-4.941769 -2.724562,0 -4.94177,2.217207 -4.94177,4.941769 z m 6.589026,0 c 0,0.909286 -0.739618,1.647257 -1.647256,1.647257 -0.907639,0 -1.647257,-0.737971 -1.647257,-1.647257 0,-0.909285 0.739618,-1.647256 1.647257,-1.647256 0.907638,0 1.647256,0.737971 1.647256,1.647256 z"
     id="path12"
     style="stroke-width:1.64725;fill:#ffffff" /><path
     d="m 67.537516,50.582305 c 2.724563,0 4.94177,-2.217207 4.94177,-4.941769 0,-2.724563 -2.217207,-4.94177 -4.94177,-4.94177 -2.724562,0 -4.941769,2.217207 -4.941769,4.94177 0,2.724562 2.217207,4.941769 4.941769,4.941769 z m 0,-6.589026 c 0.907639,0 1.647257,0.737971 1.647257,1.647257 0,0.909285 -0.739618,1.647256 -1.647257,1.647256 -0.907638,0 -1.647256,-0.737971 -1.647256,-1.647256 0,-0.909286 0.739618,-1.647257 1.647256,-1.647257 z"
     id="path14"
     style="stroke-width:1.64725;fill:#ffffff" /><path
     d="m 59.301234,17.637175 c 0,2.724563 2.217207,4.94177 4.941769,4.94177 2.724563,0 4.94177,-2.217207 4.94177,-4.94177 0,-2.724562 -2.217207,-4.941769 -4.94177,-4.941769 -2.724562,0 -4.941769,2.217207 -4.941769,4.941769 z m 6.589026,0 c 0,0.909286 -0.739618,1.647257 -1.647257,1.647257 -0.907638,0 -1.647256,-0.737971 -1.647256,-1.647257 0,-0.909285 0.739618,-1.647256 1.647256,-1.647256 0.907639,0 1.647257,0.737971 1.647257,1.647256 z"
     id="path16"
     style="stroke-width:1.64725;fill:#ffffff" /><path
     d="M 97.670779,0 96.010345,1.6604345 C 95.366267,1.3507503 94.654653,1.1646103 93.89362,1.1646103 c -2.724562,0 -4.941769,2.2172073 -4.941769,4.9417695 0,0.7610325 0.18614,1.4726473 0.495824,2.1167246 l -3.922118,3.9221176 c 0.08072,-0.35416 0.131781,-0.718204 0.131781,-1.097073 0,-2.7245619 -2.217208,-4.9417692 -4.94177,-4.9417692 -2.724562,0 -4.941769,2.2172073 -4.941769,4.9417692 0,2.724563 2.217207,4.94177 4.941769,4.94177 0.378869,0 0.742913,-0.05107 1.097073,-0.133428 l -7.216631,7.216631 c -0.644077,-0.308037 -1.355692,-0.494177 -2.116724,-0.494177 -2.724562,0 -4.94177,2.217207 -4.94177,4.941769 0,0.761033 0.18614,1.472648 0.495824,2.116725 l -5.500189,5.500189 c -0.308037,-2.429703 -2.36546,-4.322401 -4.879174,-4.322401 -2.724562,0 -4.941769,2.217207 -4.941769,4.94177 0,2.513713 1.892698,4.571136 4.322401,4.879173 l -5.50019,5.50019 c -0.644077,-0.309684 -1.355692,-0.495824 -2.116724,-0.495824 -2.724562,0 -4.94177,2.217207 -4.94177,4.941769 0,0.761033 0.187788,1.472647 0.495825,2.116725 l -6.20851,6.206862 c -0.284976,-0.04942 -0.57654,-0.0873 -0.876341,-0.0873 -2.724562,0 -4.941769,2.217207 -4.941769,4.941769 0,0.299801 0.03789,0.591365 0.08895,0.877988 L 18.590935,79.08149 c -0.645725,-0.309684 -1.35734,-0.495824 -2.118372,-0.495824 -2.724562,0 -4.94177,2.217207 -4.94177,4.941769 0,0.761033 0.18614,1.472647 0.495825,2.116725 l -3.3076894,3.307691 2.3292204,2.32922 3.307691,-3.307691 c 0.644078,0.309685 1.355692,0.495825 2.116725,0.495825 2.724562,0 4.941769,-2.217208 4.941769,-4.94177 0,-0.761032 -0.18614,-1.472647 -0.495824,-2.116725 L 34.766996,67.562225 c 0.854926,0.701731 1.932231,1.139902 3.119903,1.139902 2.724563,0 4.94177,-2.217208 4.94177,-4.94177 0,-1.189319 -0.43817,-2.266625 -1.141549,-3.119904 l 5.612203,-5.612203 c 0.645725,0.308037 1.357339,0.495825 2.118372,0.495825 2.724562,0 4.941769,-2.217208 4.941769,-4.94177 0,-0.761032 -0.18614,-1.472647 -0.495824,-2.116724 L 70.360914,31.968307 c 0.645724,0.308037 1.357339,0.494177 2.118372,0.494177 2.724562,0 4.941769,-2.217208 4.941769,-4.94177 0,-0.761032 -0.18614,-1.472647 -0.495824,-2.116724 L 91.775248,10.553972 c 0.645725,0.308037 1.35734,0.494177 2.118372,0.494177 2.724562,0 4.94177,-2.2172069 4.94177,-4.9417692 0,-0.7610325 -0.18614,-1.4726473 -0.495825,-2.1167246 L 100,2.3292207 Z M 79.068312,11.048149 c 0,-0.909285 0.739618,-1.6472562 1.647256,-1.6472562 0.907639,0 1.647257,0.7379712 1.647257,1.6472562 0,0.909286 -0.739618,1.647257 -1.647257,1.647257 -0.907638,0 -1.647256,-0.737971 -1.647256,-1.647257 z M 56.006721,35.756997 c 0,-0.909286 0.739618,-1.647257 1.647256,-1.647257 0.907639,0 1.647257,0.737971 1.647257,1.647257 0,0.909285 -0.739618,1.647256 -1.647257,1.647256 -0.907638,0 -1.647256,-0.737971 -1.647256,-1.647256 z M 16.472565,85.174692 c -0.907638,0 -1.647257,-0.737971 -1.647257,-1.647257 0,-0.909286 0.739619,-1.647256 1.647257,-1.647256 0.907638,0 1.647256,0.73797 1.647256,1.647256 0,0.909286 -0.739618,1.647257 -1.647256,1.647257 z M 37.886899,65.407614 c -0.907638,0 -1.647256,-0.737971 -1.647256,-1.647257 0,-0.909285 0.739618,-1.647256 1.647256,-1.647256 0.907639,0 1.647257,0.737971 1.647257,1.647256 0,0.909286 -0.739618,1.647257 -1.647257,1.647257 z M 49.417695,52.229562 c -0.907638,0 -1.647257,-0.737971 -1.647257,-1.647257 0,-0.909285 0.739619,-1.647256 1.647257,-1.647256 0.907638,0 1.647256,0.737971 1.647256,1.647256 0,0.909286 -0.739618,1.647257 -1.647256,1.647257 z M 72.479286,29.167971 c -0.907639,0 -1.647257,-0.737971 -1.647257,-1.647257 0,-0.909285 0.739618,-1.647256 1.647257,-1.647256 0.907638,0 1.647256,0.737971 1.647256,1.647256 0,0.909286 -0.739618,1.647257 -1.647256,1.647257 z M 93.89362,7.7536363 c -0.907638,0 -1.647256,-0.7379709 -1.647256,-1.6472565 0,-0.9092856 0.739618,-1.6472565 1.647256,-1.6472565 0.907639,0 1.647257,0.7379709 1.647257,1.6472565 0,0.9092856 -0.739618,1.6472565 -1.647257,1.6472565 z"
     id="path18"
     style="stroke-width:1.64725;fill:#ffffff" /></svg>
