<?xml version="1.0" encoding="UTF-8" standalone="no"?>
<svg
   version="1.1"
   viewBox="-5 -10 100 100"
   id="svg12"
   sodipodi:docname="rescale.svg"
   width="100"
   height="100"
   inkscape:export-filename="rescale-light.svg"
   inkscape:export-xdpi="96"
   inkscape:export-ydpi="96"
   inkscape:version="1.4.1 (93de688d07, 2025-03-30)"
   xmlns:inkscape="http://www.inkscape.org/namespaces/inkscape"
   xmlns:sodipodi="http://sodipodi.sourceforge.net/DTD/sodipodi-0.dtd"
   xmlns="http://www.w3.org/2000/svg"
   xmlns:svg="http://www.w3.org/2000/svg">
  <defs
     id="defs12" />
  <sodipodi:namedview
     id="namedview12"
     pagecolor="#ffffff"
     bordercolor="#000000"
     borderopacity="0.25"
     inkscape:showpageshadow="2"
     inkscape:pageopacity="0.0"
     inkscape:pagecheckerboard="0"
     inkscape:deskcolor="#d1d1d1"
     inkscape:export-bgcolor="#06060600"
     inkscape:zoom="5.6568542"
     inkscape:cx="86.267027"
     inkscape:cy="47.552931"
     inkscape:window-width="1902"
     inkscape:window-height="1005"
     inkscape:window-x="0"
     inkscape:window-y="0"
     inkscape:window-maximized="1"
     inkscape:current-layer="svg12">
    <inkscape:page
       x="0"
       y="0"
       width="100"
       height="100"
       id="page2"
       margin="0"
       bleed="0" />
  </sodipodi:namedview>
  <path
     d="m 34.265848,55.50231 c 2.856501,0.0561 3.889734,-3.992543 1.29965,-5.292312 C 16.930681,40.39219 22.002894,12.588492 42.685745,9.779506 V 55.44139 c -0.0093,1.514723 1.243638,2.81916 2.805156,2.809824 28.29931,-0.303889 37.51379,-37.938668 12.515369,-51.221211 -3.314652,-1.631654 -5.825266,3.211843 -2.590084,4.979099 7.153041,3.721457 11.599066,11.038107 11.599066,19.093207 0,10.925843 -8.176819,19.953736 -18.719793,21.337284 l -0.0047,-45.661884 c 0.0047,-0.196354 -0.0187,-0.39272 -0.0561,-0.575046 C 47.97285,4.90768 46.790071,3.911789 45.410832,3.967921 30.482632,4.010001 18.35145,16.161339 18.35145,31.097916 c 0.04208,10.275959 6.059008,20.837005 15.909609,24.404789 z"
     id="path1"
     style="fill:#ffffff;stroke-width:1.19684" />
  <path
     d="m 45.486234,0.31237299 c 1.547515,0 2.805156,-1.2576409 2.805156,-2.80515649 v -4.7405682 c -0.06078,-3.6839973 -5.549393,-3.6886643 -5.610193,0 v 4.7405682 c 0,1.54751559 1.257641,2.80515649 2.805156,2.80515649 z"
     id="path2"
     style="fill:#ffffff;stroke-width:1.19684" />
  <path
     d="m 19.744574,9.330571 c 2.650764,2.561958 6.531162,-1.31844 3.964536,-3.964536 L 20.356998,2.01859 c -1.093985,-1.09398501 -2.870504,-1.09398501 -3.969205,0 -1.093984,1.093984 -1.093984,2.870503 0,3.964536 l 3.352113,3.347445 z"
     id="path3"
     style="fill:#ffffff;stroke-width:1.19684" />
  <path
     d="m 7.150214,33.907704 h 4.735901 c 1.547515,0 2.805156,-1.25764 2.805156,-2.805156 0,-1.547516 -1.257641,-2.805156 -2.805156,-2.805156 H 7.150214 c -3.6839965,0.06078 -3.6886642,5.549393 0,5.610193 z"
     id="path4"
     style="fill:#ffffff;stroke-width:1.19684" />
  <path
     d="m 19.744574,52.875243 -3.352113,3.352113 c -1.093984,1.093985 -1.093984,2.870504 0,3.964536 1.093985,1.093985 2.870504,1.093985 3.969204,0 l 3.352113,-3.352112 c 2.561958,-2.650764 -1.31844,-6.531163 -3.969204,-3.964537 z"
     id="path5"
     style="fill:#ffffff;stroke-width:1.19684" />
  <path
     d="m 42.680838,64.703625 v 4.7359 c 0,1.547516 1.257641,2.805156 2.805156,2.805156 1.547516,0 2.805157,-1.25764 2.805157,-2.805156 v -4.7359 c -0.06078,-3.683997 -5.549394,-3.688665 -5.610193,0 z"
     id="path6"
     style="fill:#ffffff;stroke-width:1.19684" />
  <path
     d="m 67.263956,52.875243 c -1.093985,1.093985 -1.093985,2.870504 0,3.964537 l 3.352112,3.352112 c 1.093985,1.093985 2.870504,1.093985 3.969205,0 1.093984,-1.093984 1.093984,-2.870503 0,-3.964536 L 71.23316,52.875243 c -1.093985,-1.093984 -2.870504,-1.093984 -3.969204,0 z"
     id="path7"
     style="fill:#ffffff;stroke-width:1.19684" />
  <path
     d="m 79.086353,33.907704 h 4.7359 c 1.547516,0 2.805157,-1.25764 2.805157,-2.805156 0,-1.547516 -1.257641,-2.805156 -2.805157,-2.805156 h -4.7359 c -3.683997,0.06078 -3.688665,5.549393 0,5.610193 z"
     id="path8"
     style="fill:#ffffff;stroke-width:1.19684" />
  <path
     d="m 69.245925,10.14921 c 0.719971,0 1.435252,-0.275836 1.982208,-0.822828 l 3.352113,-3.347445 c 1.093984,-1.093985 1.093984,-2.870504 0,-3.964536 -1.093985,-1.09398501 -2.870504,-1.09398501 -3.969204,0 l -3.352113,3.347445 c -1.790594,1.664327 -0.416094,4.87617 1.982208,4.787364 z"
     id="path9"
     style="fill:#ffffff;stroke-width:1.19684" />
  <path
     d="M 91.452116,78.671958 H 32.078022 c -3.669994,0.0561 -3.702787,5.544726 0,5.610193 h 59.374094 c 3.669994,-0.0561 3.702784,-5.544726 0,-5.610193 z"
     id="path10"
     style="fill:#ffffff;stroke-width:1.19684" />
  <path
     d="m 23.658245,75.736107 c -0.06545,-3.683997 -5.544726,-3.688665 -5.610193,0 v 2.935971 H -1.4149796 c -1.5475156,0 -2.8051563,1.25764 -2.8051563,2.805156 0,1.547516 1.2576407,2.805156 2.8051563,2.805156 H 18.043264 v 2.954762 c 0.06078,3.683998 5.549394,3.688668 5.610193,0 v -5.684996 c 0.0094,-0.04675 0,-5.811262 0,-5.811262 z"
     id="path11"
     style="fill:#ffffff;stroke-width:1.19684" />
</svg>
